{"glyphs":{"0":{"ha":967,"x_min":100,"x_max":867,"o":"m 488 882 q 588 853 543 882 l 647 981 q 483 1015 576 1015 q 324 983 394 1015 q 203 886 253 950 q 126 726 153 822 q 100 504 100 631 q 134 257 100 360 q 231 90 168 154 l 306 250 q 276 358 286 294 q 265 504 267 421 q 283 681 267 608 q 327 798 299 753 q 397 863 356 843 q 488 882 438 882 m 731 922 l 657 765 q 658 763 657 764 q 689 654 678 718 q 701 504 700 590 q 684 328 700 400 q 640 210 668 256 q 570 146 611 165 q 479 126 529 126 q 374 160 415 126 l 313 31 q 483 -7 388 -7 q 643 26 572 -7 q 764 122 714 58 q 840 282 814 186 q 867 504 867 378 q 832 756 867 651 q 731 922 797 860 "},"1":{"ha":574,"x_min":39,"x_max":458,"o":"m 458 0 l 458 0 l 458 1000 l 293 1000 l 39 746 l 156 629 l 293 767 l 293 0 l 458 0 "},"2":{"ha":833,"x_min":107,"x_max":739,"o":"m 724 703 q 704 807 724 753 q 644 906 685 861 q 540 978 604 950 q 389 1007 476 1007 q 319 1001 357 1007 q 242 983 281 994 q 167 955 203 972 q 107 915 132 938 l 154 815 q 198 840 178 829 q 244 856 218 850 q 304 866 269 863 q 392 869 339 869 q 450 861 419 869 q 506 833 481 853 q 549 781 532 813 q 565 701 565 749 q 539 603 565 656 q 472 498 513 551 q 380 392 431 444 q 279 294 329 340 q 186 211 229 249 q 118 151 143 174 l 118 0 l 739 0 l 739 132 l 315 132 q 381 194 340 157 q 466 278 421 232 q 557 376 511 324 q 640 483 603 428 q 701 594 678 538 q 724 703 724 650 "},"3":{"ha":785,"x_min":100,"x_max":690,"o":"m 497 526 q 551 549 522 532 q 602 591 579 565 q 640 651 625 617 q 656 728 656 686 q 631 853 656 800 q 563 940 606 906 q 463 990 519 974 q 342 1006 406 1006 q 203 994 251 1006 q 122 974 154 983 l 169 851 q 226 870 189 858 q 325 882 263 882 q 423 867 388 882 q 476 830 458 853 q 499 780 494 807 q 503 728 503 753 q 485 635 503 667 q 441 589 468 603 q 383 574 414 575 q 322 572 351 572 l 231 572 l 232 463 l 231 463 l 369 463 q 492 413 450 463 q 535 289 535 363 q 488 160 535 211 q 349 110 442 110 q 248 115 285 110 q 191 127 211 119 q 160 142 171 135 q 138 157 150 150 l 100 40 q 192 9 126 25 q 372 -7 258 -7 q 417 -4 388 -7 q 481 8 446 -1 q 554 38 517 18 q 622 90 592 57 q 671 172 651 122 q 690 289 690 221 q 672 388 690 344 q 624 460 653 431 q 562 506 596 490 q 497 526 528 522 "},"4":{"ha":843,"x_min":51,"x_max":754,"o":"m 650 363 l 650 1000 l 485 1000 l 485 0 l 650 0 l 650 233 l 754 233 l 754 363 l 650 363 m 51 233 l 429 233 l 429 363 l 197 363 l 429 724 l 429 918 l 51 363 l 51 233 "},"5":{"ha":821,"x_min":106,"x_max":717,"o":"m 414 621 q 367 619 397 621 q 310 611 338 617 l 293 478 q 342 488 317 485 q 393 492 367 492 q 523 447 474 492 q 572 324 572 401 q 515 165 572 217 q 358 114 458 114 q 291 122 326 114 q 223 143 256 131 q 161 170 190 156 q 113 197 132 185 l 113 61 q 152 42 126 54 q 213 19 178 31 q 289 1 247 8 q 376 -7 331 -7 q 478 3 419 -7 q 590 47 536 13 q 680 147 643 82 q 717 324 717 213 q 696 434 717 381 q 636 529 675 488 q 541 596 597 571 q 414 621 485 621 m 233 442 l 240 496 l 251 588 q 252 595 251 589 q 256 628 253 601 q 267 711 260 656 q 289 867 275 767 l 663 867 l 663 1000 l 167 1000 q 136 743 150 860 q 125 644 131 693 q 115 554 119 596 q 108 483 111 513 q 106 442 106 453 l 233 442 "},"6":{"ha":876,"x_min":99,"x_max":781,"o":"m 476 881 q 583 874 538 881 q 667 843 629 868 l 719 956 q 604 997 671 988 q 461 1007 538 1007 q 333 978 397 1007 q 216 881 268 950 q 131 692 164 811 q 99 394 99 574 q 118 238 99 310 q 178 112 138 165 q 281 27 219 58 q 426 -8 343 -4 l 426 125 q 357 147 389 129 q 302 194 325 165 q 266 260 279 222 q 253 343 253 299 q 266 424 253 386 q 302 489 279 461 q 357 533 325 517 q 426 554 389 550 l 426 674 q 327 643 369 667 q 269 590 285 619 q 265 589 268 589 q 260 588 261 589 q 273 697 260 644 q 313 791 286 750 q 380 856 339 832 q 476 881 421 881 m 482 676 l 482 553 q 594 483 550 540 q 638 343 638 426 q 594 199 638 258 q 482 126 550 140 l 482 -7 q 582 20 529 -1 q 679 84 635 42 q 752 194 724 126 q 781 357 781 261 q 760 469 781 413 q 700 570 739 525 q 606 644 661 615 q 482 676 550 674 "},"7":{"ha":772,"x_min":86,"x_max":714,"o":"m 174 0 l 325 0 l 714 1000 l 86 1000 l 86 867 l 521 867 l 174 0 "},"8":{"ha":824,"x_min":97,"x_max":728,"o":"m 129 747 q 169 624 129 676 q 267 531 208 572 q 144 428 192 496 q 97 260 97 360 q 172 68 97 139 q 385 -11 246 -3 l 385 118 q 283 169 322 129 q 243 267 243 210 q 256 335 243 304 q 286 391 268 367 q 325 434 304 415 q 364 468 346 453 l 385 456 l 385 619 q 301 678 335 649 q 268 744 268 708 q 300 833 268 801 q 385 874 332 865 l 385 1006 q 284 981 331 1000 q 203 930 238 963 q 149 851 169 897 q 129 747 129 806 m 546 526 q 598 574 572 549 q 644 628 624 600 q 678 688 665 657 q 690 750 690 718 q 677 844 690 799 q 634 924 664 889 q 556 982 604 960 q 440 1007 508 1004 l 440 875 q 519 845 488 872 q 551 747 551 818 q 522 649 551 690 q 457 579 492 608 q 440 589 446 585 l 440 421 q 540 342 499 383 q 582 247 582 301 q 571 202 582 224 q 541 163 560 181 q 497 132 522 144 q 440 117 471 119 l 440 -12 q 551 11 499 -10 q 643 67 604 32 q 705 153 682 103 q 728 265 728 203 q 713 349 728 311 q 674 418 699 386 q 615 476 649 450 q 546 526 582 503 "},"9":{"ha":875,"x_min":94,"x_max":776,"o":"m 394 322 l 394 446 q 281 514 325 457 q 238 656 238 571 q 281 799 238 740 q 394 872 325 858 l 394 1004 q 293 978 346 1000 q 197 915 240 957 q 124 805 153 872 q 94 642 94 738 q 115 530 94 586 q 175 428 136 474 q 269 353 214 383 q 394 322 325 324 m 450 1007 l 450 874 q 519 851 488 869 q 573 805 550 833 q 609 738 596 776 q 622 656 622 700 q 609 574 622 611 q 573 510 596 538 q 519 466 550 483 q 450 444 488 449 l 450 325 q 549 356 507 332 q 606 408 590 379 q 610 410 607 410 q 615 411 614 410 q 602 302 615 354 q 563 210 589 250 q 495 145 536 169 q 399 121 454 121 q 292 127 338 121 q 208 158 246 133 l 156 46 q 271 3 204 14 q 414 -7 338 -7 q 542 21 478 -7 q 659 119 607 49 q 744 307 711 189 q 776 604 776 425 q 757 761 776 689 q 697 887 738 833 q 594 972 656 940 q 450 1007 533 1003 "}," ":{"ha":372,"x_min":0,"x_max":0,"o":""},"!":{"ha":397,"x_min":101,"x_max":296,"o":"m 258 276 l 281 1000 l 115 1000 l 138 276 l 258 276 m 296 92 q 267 160 296 132 q 199 189 239 189 q 130 160 158 189 q 101 92 101 132 q 130 23 101 51 q 199 -6 158 -6 q 267 23 239 -6 q 296 92 296 51 "},"\"":{"ha":610,"x_min":111,"x_max":499,"o":"m 226 765 l 249 1000 l 111 1000 l 133 765 l 226 765 m 476 765 l 499 1000 l 361 1000 l 383 765 l 476 765 "},"$":{"ha":736,"x_min":110,"x_max":690,"o":"m 271 742 q 282 788 271 764 q 312 830 293 811 q 355 862 331 849 q 407 878 379 875 q 487 879 456 882 q 537 869 518 876 q 566 856 556 863 q 585 844 576 849 q 593 858 586 846 q 609 889 600 871 q 629 928 618 907 q 649 967 640 949 q 564 1000 615 989 q 460 1014 513 1011 l 460 1125 l 350 1125 l 350 1008 q 258 976 301 999 q 184 919 215 954 q 135 838 153 885 q 117 736 117 792 q 148 615 117 664 q 226 529 179 565 q 328 467 274 493 q 429 414 382 440 q 508 355 476 388 q 539 276 539 322 q 495 163 539 201 q 368 124 451 124 q 309 129 340 124 q 247 143 278 135 q 187 162 215 151 q 139 183 158 172 l 110 67 q 214 15 151 31 q 335 -4 276 -1 l 335 -132 l 444 -132 l 444 1 q 548 38 503 11 q 625 101 593 64 q 674 182 657 138 q 690 274 690 226 q 659 405 690 354 q 581 490 628 456 q 481 547 535 524 q 380 596 426 571 q 302 654 333 621 q 271 742 271 688 "},"%":{"ha":1093,"x_min":78,"x_max":1007,"o":"m 229 608 l 229 694 q 185 733 203 704 q 168 807 168 763 q 185 880 168 851 q 229 918 203 908 l 229 1003 q 172 981 199 997 q 126 938 146 964 q 94 879 106 913 q 82 807 82 846 q 94 734 82 768 q 126 674 106 700 q 172 631 146 649 q 229 608 199 614 m 428 807 q 387 937 428 883 q 285 1003 346 990 l 285 917 q 327 878 311 906 q 343 807 343 850 q 327 735 343 763 q 285 696 311 707 l 285 610 q 387 676 346 622 q 428 807 428 731 m 650 194 q 690 66 650 119 q 788 -1 729 13 l 788 86 q 750 126 764 99 q 736 194 736 154 q 750 262 736 235 q 788 301 764 289 l 788 389 q 690 322 729 375 q 650 194 650 269 m 1007 1000 l 869 1000 l 78 -1 l 215 -1 l 1007 1000 m 843 392 l 843 307 q 892 270 872 300 q 911 194 911 240 q 892 117 911 146 q 843 81 872 88 l 843 -4 q 903 17 875 0 q 951 60 931 33 q 984 120 972 86 q 996 194 996 154 q 984 268 996 233 q 951 328 972 303 q 903 371 931 354 q 843 392 875 388 "},"&":{"ha":957,"x_min":99,"x_max":886,"o":"m 886 0 l 703 228 q 748 312 726 269 q 785 397 769 354 l 679 440 q 650 381 664 406 q 621 332 636 356 q 544 418 585 375 q 478 497 504 461 q 540 539 508 514 q 599 598 572 564 q 642 675 625 632 q 661 771 658 718 q 640 876 661 832 q 585 951 619 921 q 506 995 550 981 q 415 1010 463 1010 l 415 878 q 500 849 465 876 q 535 768 535 821 q 505 676 535 722 q 415 600 475 629 l 415 371 q 482 294 447 333 q 549 215 517 254 q 498 161 528 192 q 415 115 468 131 l 415 -4 q 536 39 485 7 q 622 117 588 71 l 717 0 l 886 0 m 165 781 q 178 700 165 738 q 211 633 192 663 q 252 579 231 603 q 290 539 274 556 q 221 486 256 517 q 159 418 186 456 q 115 335 132 381 q 99 235 99 289 q 121 124 99 171 q 178 48 143 78 q 256 4 213 18 q 342 -10 299 -10 l 360 -10 l 360 108 l 356 108 q 296 123 319 108 q 258 157 272 138 q 237 198 243 176 q 231 235 231 219 q 261 335 231 283 q 360 432 292 388 l 360 636 q 317 698 336 663 q 297 781 297 733 q 315 833 297 810 q 360 867 333 856 l 360 1006 q 281 976 317 997 q 219 926 244 956 q 179 859 193 896 q 165 781 165 822 "},"'":{"ha":340,"x_min":101,"x_max":239,"o":"m 217 765 l 239 1000 l 101 1000 l 124 765 l 217 765 "},"(":{"ha":400,"x_min":79,"x_max":325,"o":"m 232 -83 l 325 -83 q 290 -19 313 -67 q 244 101 267 29 q 205 265 221 172 q 190 463 189 357 q 206 681 192 583 q 237 849 219 778 q 272 966 254 921 q 301 1026 290 1011 l 215 1026 q 165 932 190 993 q 122 796 140 871 q 91 641 103 721 q 79 490 79 561 q 92 330 79 415 q 126 165 106 244 q 175 20 147 86 q 232 -83 203 -46 "},")":{"ha":399,"x_min":74,"x_max":319,"o":"m 74 -83 l 167 -83 q 224 20 196 -46 q 272 165 251 86 q 306 330 293 244 q 319 490 319 415 q 308 641 319 561 q 277 796 296 721 q 233 932 258 871 q 183 1026 208 993 l 97 1026 q 126 966 107 1011 q 162 849 144 921 q 193 681 179 778 q 208 463 207 583 q 194 265 210 357 q 155 101 178 172 q 109 -19 132 29 q 74 -83 86 -67 "},"*":{"ha":635,"x_min":75,"x_max":560,"o":"m 532 653 l 532 653 l 560 753 l 385 782 l 521 894 l 449 968 l 336 832 l 307 1006 l 207 978 l 268 813 l 103 875 l 75 775 l 250 746 l 114 632 l 186 560 l 299 696 l 328 522 l 428 549 l 367 715 l 532 653 "},"+":{"ha":879,"x_min":57,"x_max":822,"o":"m 822 314 l 822 451 l 508 451 l 508 765 l 371 765 l 371 451 l 57 451 l 57 314 l 371 314 l 371 0 l 508 0 l 508 314 l 822 314 "},",":{"ha":367,"x_min":88,"x_max":282,"o":"m 185 189 q 116 160 144 189 q 88 92 88 132 q 116 23 88 51 q 185 -6 144 -6 q 164 -57 176 -31 q 135 -108 153 -81 q 90 -162 118 -136 l 154 -162 q 231 -78 204 -121 q 268 -1 257 -36 q 281 60 279 35 q 282 92 282 85 q 253 160 282 132 q 185 189 225 189 "},"-":{"ha":664,"x_min":117,"x_max":549,"o":"m 549 465 l 117 465 l 117 328 l 549 328 l 549 465 "},".":{"ha":282,"x_min":44,"x_max":239,"o":"m 239 92 q 210 160 239 132 q 142 189 182 189 q 73 160 101 189 q 44 92 44 132 q 73 23 44 51 q 142 -6 101 -6 q 210 23 182 -6 q 239 92 239 51 "},"/":{"ha":617,"x_min":46,"x_max":572,"o":"m 156 -29 l 572 1083 l 463 1083 l 46 -29 l 156 -29 "},":":{"ha":400,"x_min":104,"x_max":299,"o":"m 299 675 q 270 744 299 715 q 201 772 242 772 q 133 744 161 772 q 104 675 104 715 q 133 606 104 635 q 201 578 161 578 q 270 606 242 578 q 299 675 299 635 m 299 90 q 270 159 299 131 q 201 188 242 188 q 133 159 161 188 q 104 90 104 131 q 133 22 104 50 q 201 -7 161 -7 q 270 22 242 -7 q 299 90 299 50 "},";":{"ha":372,"x_min":89,"x_max":283,"o":"m 186 189 q 255 160 226 189 q 283 92 283 132 q 282 60 283 85 q 269 -1 281 35 q 232 -78 258 -36 q 156 -162 206 -121 l 92 -162 q 137 -108 119 -136 q 165 -57 154 -81 q 186 -6 178 -31 q 117 23 146 -6 q 89 92 89 51 q 117 160 89 132 q 186 189 146 189 m 283 675 q 255 744 283 715 q 186 772 226 772 q 117 744 146 772 q 89 675 89 715 q 117 606 89 635 q 186 578 146 578 q 255 606 226 578 q 283 675 283 635 "},"<":{"ha":875,"x_min":39,"x_max":761,"o":"m 761 114 l 761 114 l 167 390 l 761 664 l 761 785 l 39 436 l 39 344 l 761 -8 l 761 114 "},"=":{"ha":867,"x_min":117,"x_max":750,"o":"m 750 603 l 117 603 l 117 465 l 750 465 l 750 603 m 750 328 l 117 328 l 117 190 l 750 190 l 750 328 "},">":{"ha":878,"x_min":117,"x_max":839,"o":"m 117 114 l 117 -8 l 839 344 l 839 436 l 117 785 l 117 664 l 711 390 l 117 114 "},"?":{"ha":689,"x_min":92,"x_max":624,"o":"m 326 275 q 349 363 326 328 q 403 426 371 399 q 475 477 436 453 q 547 535 514 501 q 601 616 579 568 q 624 736 624 664 q 599 854 624 803 q 532 942 574 906 q 435 997 490 978 q 321 1015 381 1015 q 195 1004 258 1015 q 92 967 132 993 q 111 928 100 949 q 131 889 122 907 q 147 858 140 871 q 156 844 154 846 q 174 856 164 849 q 203 869 185 863 q 253 879 222 876 q 333 878 285 882 q 385 862 360 875 q 428 830 410 849 q 458 788 447 811 q 469 742 469 764 q 450 654 469 688 q 401 596 431 621 q 336 548 371 571 q 272 491 301 525 q 222 406 242 457 q 203 275 203 356 l 326 275 m 363 92 q 334 160 363 132 q 265 189 306 189 q 197 160 225 189 q 168 92 168 132 q 197 23 168 51 q 265 -6 225 -6 q 334 23 306 -6 q 363 92 363 51 "},"@":{"ha":1411,"x_min":100,"x_max":1335,"o":"m 100 408 q 128 223 100 311 q 198 60 156 135 q 290 -71 240 -14 q 381 -162 339 -128 l 457 -72 q 395 -15 433 -56 q 321 89 357 26 q 258 233 285 151 q 232 408 232 314 q 258 604 232 513 q 335 767 283 696 q 468 885 388 839 q 658 946 549 932 l 658 1079 q 431 1015 533 1065 q 254 881 328 965 q 140 677 181 796 q 100 408 100 558 m 422 417 q 437 299 422 356 q 481 200 451 243 q 553 131 510 157 q 656 106 597 106 l 658 106 l 658 213 q 585 283 613 229 q 557 407 557 336 q 583 535 557 479 q 658 608 610 592 l 658 713 q 574 694 617 710 q 499 642 532 678 q 444 551 465 607 q 422 417 422 496 m 749 1083 q 731 1083 740 1083 q 714 1082 722 1083 l 714 950 q 731 951 722 951 q 749 951 740 951 q 933 915 850 951 q 1076 814 1017 879 q 1169 658 1136 749 q 1203 458 1203 568 q 1166 262 1203 324 q 1053 200 1129 200 q 1022 205 1039 200 q 992 223 1006 210 q 968 258 978 236 q 958 313 958 279 l 957 707 l 842 707 l 828 647 q 781 686 811 671 q 714 708 751 701 l 714 613 q 803 544 769 601 q 836 408 836 488 q 804 274 836 331 q 714 207 772 217 l 714 111 q 792 140 760 121 q 828 182 824 160 l 840 182 q 874 140 850 158 q 925 109 897 122 q 982 89 953 96 q 1035 82 1011 82 q 1160 109 1104 82 q 1254 185 1215 136 q 1314 303 1293 233 q 1335 458 1335 372 q 1297 693 1335 581 q 1186 892 1260 806 q 1003 1031 1113 979 q 749 1083 893 1083 "},"A":{"ha":1031,"x_min":86,"x_max":944,"o":"m 944 0 l 597 999 l 435 999 l 86 0 l 256 0 l 517 749 l 776 0 l 944 0 m 607 318 l 425 318 l 386 207 l 646 207 l 607 318 "},"B":{"ha":911,"x_min":131,"x_max":806,"o":"m 603 526 q 653 549 628 532 q 700 591 679 565 q 734 651 721 617 q 747 728 747 686 q 720 852 747 800 q 647 937 693 904 q 542 985 601 969 q 418 1000 482 1000 l 349 1000 l 349 876 l 401 876 q 502 863 464 876 q 560 827 540 849 q 588 779 581 806 q 594 728 594 753 q 577 635 594 667 q 533 589 560 603 q 474 574 506 575 q 414 572 443 572 l 349 572 l 349 463 l 485 463 q 608 413 565 463 q 650 289 650 363 q 609 165 650 211 q 496 119 568 119 l 349 119 l 349 0 l 506 0 q 540 2 514 0 q 599 14 565 4 q 668 42 632 24 q 735 92 704 60 q 785 172 765 124 q 806 289 806 221 q 785 388 806 344 q 735 460 765 431 q 669 506 704 490 q 603 526 633 522 m 131 1000 l 131 0 l 293 0 l 293 1000 l 131 1000 "},"C":{"ha":911,"x_min":107,"x_max":801,"o":"m 689 807 l 801 907 q 547 1014 699 1007 l 547 881 q 623 860 588 878 q 689 807 658 842 m 547 128 l 547 -7 q 686 24 622 -3 q 801 101 750 51 l 689 201 q 624 149 660 167 q 547 128 588 132 m 107 504 q 136 291 107 383 q 217 135 165 199 q 338 35 268 71 q 492 -6 408 0 l 492 128 q 408 158 447 133 q 338 228 368 182 q 291 342 308 274 q 272 504 274 410 q 291 667 274 599 q 338 780 308 735 q 408 849 368 825 q 492 879 447 872 l 492 1014 q 338 973 408 1008 q 217 874 268 938 q 136 717 165 810 q 107 504 107 625 "},"D":{"ha":1044,"x_min":131,"x_max":938,"o":"m 131 1000 l 131 0 l 293 0 l 293 1000 l 131 1000 m 432 1000 l 349 1000 l 349 876 l 388 876 q 578 846 504 876 q 694 766 651 815 q 751 656 736 717 q 767 532 767 594 q 693 225 767 331 q 454 119 619 119 l 349 119 l 349 0 l 508 0 q 567 5 528 0 q 654 26 607 10 q 752 77 701 43 q 844 170 803 111 q 911 317 885 229 q 938 528 938 404 q 906 701 938 617 q 812 853 875 786 q 653 960 749 919 q 432 1000 558 1000 "},"E":{"ha":853,"x_min":129,"x_max":754,"o":"m 129 1000 l 129 0 l 294 0 l 294 1000 l 129 1000 m 713 450 l 713 561 l 350 561 l 350 450 l 713 450 m 350 124 l 350 0 l 754 0 l 754 124 l 350 124 m 754 1000 l 350 1000 l 350 876 l 754 876 l 754 1000 "},"F":{"ha":803,"x_min":129,"x_max":754,"o":"m 129 1000 l 129 0 l 294 0 l 294 1000 l 129 1000 m 713 450 l 713 561 l 350 561 l 350 450 l 713 450 m 754 1000 l 350 1000 l 350 876 l 754 876 l 754 1000 "},"G":{"ha":964,"x_min":107,"x_max":853,"o":"m 689 807 l 801 907 q 676 988 746 961 q 524 1015 606 1015 l 522 1015 l 522 882 l 528 882 q 615 864 572 882 q 689 807 657 846 m 107 504 q 134 297 107 388 q 209 144 161 207 q 323 43 257 81 q 467 -4 389 6 l 467 119 q 392 159 426 131 q 331 235 357 188 q 289 350 304 283 q 272 504 274 417 q 289 658 274 593 q 331 767 304 722 q 392 838 357 813 q 467 875 426 864 l 467 1011 q 323 965 389 1001 q 209 865 257 928 q 134 711 161 801 q 107 504 107 621 m 853 515 l 522 515 l 522 404 l 692 404 l 692 157 q 658 135 681 143 q 611 122 636 126 q 563 115 586 117 q 522 113 539 113 l 522 -7 l 524 -7 q 614 0 568 -7 q 702 23 660 7 q 783 65 744 39 q 853 129 822 90 l 853 515 "},"H":{"ha":1017,"x_min":128,"x_max":889,"o":"m 889 1000 l 725 1000 l 725 561 l 349 561 l 349 450 l 725 450 l 725 0 l 889 0 l 889 1000 m 128 1000 l 128 0 l 293 0 l 293 1000 l 128 1000 "},"I":{"ha":418,"x_min":128,"x_max":293,"o":"m 293 0 l 293 1000 l 128 1000 l 128 0 l 293 0 "},"J":{"ha":767,"x_min":35,"x_max":647,"o":"m 647 1019 l 482 1019 l 482 256 q 436 161 479 189 q 321 133 393 133 q 260 140 293 133 q 198 155 228 146 q 143 174 168 164 q 104 194 118 185 l 35 85 q 102 47 63 64 q 184 18 142 31 q 267 -1 226 6 q 336 -7 307 -7 q 452 5 396 -7 q 552 46 508 17 q 622 123 596 75 q 647 242 647 171 l 647 1019 "},"K":{"ha":907,"x_min":126,"x_max":803,"o":"m 126 0 l 292 0 l 292 1000 l 126 1000 l 126 0 m 456 486 l 776 1000 l 590 1000 l 347 592 l 347 393 l 614 0 l 803 0 l 456 486 "},"L":{"ha":793,"x_min":126,"x_max":751,"o":"m 292 1000 l 126 1000 l 126 0 l 751 0 l 751 124 l 292 124 l 292 1000 "},"M":{"ha":1174,"x_min":125,"x_max":1049,"o":"m 125 1000 l 125 0 l 290 0 l 290 688 l 515 132 l 558 132 l 558 382 l 290 1000 l 125 1000 m 883 1000 l 614 379 l 614 132 l 660 132 l 883 688 l 883 0 l 1049 0 l 1049 1000 l 883 1000 "},"N":{"ha":972,"x_min":125,"x_max":847,"o":"m 682 1000 l 682 311 l 346 903 l 346 592 l 682 0 l 847 0 l 847 1000 l 682 1000 m 125 0 l 290 0 l 290 1000 l 125 1000 l 125 0 "},"O":{"ha":1042,"x_min":104,"x_max":938,"o":"m 104 504 q 133 290 104 383 q 215 133 163 197 q 338 33 267 68 q 493 -7 410 -1 l 493 128 q 408 156 449 132 q 338 225 368 179 q 289 340 307 271 q 269 504 271 408 q 289 669 271 600 q 337 783 307 738 q 407 851 367 828 q 493 879 447 874 l 493 1014 q 338 975 410 1010 q 215 876 267 940 q 133 718 163 811 q 104 504 104 625 m 549 1014 l 549 881 q 633 853 593 876 q 704 783 674 829 q 753 669 735 738 q 772 504 771 600 q 753 340 771 408 q 705 226 735 271 q 635 157 675 181 q 549 128 594 133 l 549 -7 q 703 33 632 -1 q 826 133 774 68 q 908 290 878 197 q 938 504 938 383 q 908 718 938 625 q 826 876 878 811 q 703 975 774 940 q 549 1014 632 1010 "},"P":{"ha":821,"x_min":124,"x_max":760,"o":"m 124 1000 l 124 0 l 286 0 l 286 1000 l 124 1000 m 411 1000 l 342 1000 l 342 876 l 408 876 q 509 857 471 876 q 568 808 547 838 q 596 747 589 779 q 603 690 603 715 q 588 588 603 629 q 548 524 572 547 q 494 490 524 500 q 435 481 464 481 l 342 481 l 342 361 l 407 361 q 551 384 486 361 q 662 449 615 407 q 734 553 708 492 q 760 690 760 614 q 729 820 760 763 q 649 918 699 878 q 538 979 600 958 q 411 1000 475 1000 "},"Q":{"ha":1017,"x_min":86,"x_max":919,"o":"m 86 504 q 113 297 86 388 q 189 142 140 206 q 304 42 238 79 q 450 -4 371 6 l 475 -4 l 475 128 q 390 156 431 132 q 319 225 350 179 q 271 340 289 271 q 251 504 253 408 q 271 669 253 600 q 319 783 289 738 q 389 851 349 828 q 475 879 429 874 l 475 1014 q 320 975 392 1010 q 197 876 249 940 q 115 718 144 811 q 86 504 86 625 m 919 504 q 890 718 919 625 q 808 876 860 811 q 685 975 756 940 q 531 1014 614 1010 l 531 881 q 615 853 575 876 q 686 783 656 829 q 735 669 717 738 q 754 504 753 600 q 735 340 753 408 q 687 226 717 271 q 617 157 657 181 q 531 128 576 133 l 531 -74 l 621 -229 l 800 -229 l 613 13 q 731 65 675 25 q 828 169 786 106 q 895 317 871 233 q 919 504 919 401 "},"R":{"ha":896,"x_min":122,"x_max":800,"o":"m 122 1000 l 122 0 l 285 0 l 285 1000 l 122 1000 m 800 0 l 572 393 q 708 506 658 431 q 758 690 758 582 q 728 820 758 763 q 648 918 697 878 q 536 979 599 958 q 410 1000 474 1000 l 340 1000 l 340 876 l 407 876 q 508 857 469 876 q 567 808 546 838 q 594 747 588 779 q 601 690 601 715 q 586 588 601 629 q 547 524 571 547 q 492 490 522 500 q 433 481 463 481 l 340 481 l 340 361 q 389 361 371 361 q 417 361 407 361 q 431 362 426 361 q 439 363 435 363 l 628 0 l 800 0 "},"S":{"ha":736,"x_min":110,"x_max":690,"o":"m 585 844 q 593 858 586 846 q 609 889 600 871 q 629 928 618 907 q 649 967 640 949 q 549 1003 610 992 q 428 1015 488 1014 l 428 879 q 497 878 469 882 q 541 867 524 874 q 568 854 558 861 q 585 844 578 847 m 117 736 q 140 629 117 674 q 201 551 164 585 q 283 492 238 517 q 372 444 328 467 l 372 600 q 299 656 328 624 q 271 742 271 689 q 300 817 271 781 q 372 869 329 854 l 372 1013 q 273 984 319 1006 q 192 927 226 963 q 137 844 157 892 q 117 736 117 796 m 139 183 l 110 67 q 165 32 133 46 q 232 10 197 18 q 302 -2 267 1 q 369 -6 338 -6 l 372 -6 l 372 124 l 368 124 q 309 129 340 124 q 247 143 278 135 q 187 162 215 151 q 139 183 158 172 m 428 572 l 428 414 q 508 355 476 386 q 539 276 539 324 q 428 129 539 157 l 428 -1 q 539 33 490 7 q 621 96 588 58 q 672 179 654 133 q 690 274 690 225 q 666 392 690 344 q 603 472 642 439 q 519 528 565 506 q 428 572 472 551 "},"T":{"ha":900,"x_min":69,"x_max":831,"o":"m 831 1000 l 831 1000 l 69 1000 l 69 889 l 368 889 l 368 0 l 532 0 l 532 889 l 831 889 l 831 1000 "},"U":{"ha":1000,"x_min":111,"x_max":889,"o":"m 276 521 l 276 1000 l 111 1000 l 111 504 q 137 290 111 383 q 209 133 163 197 q 322 33 256 68 q 472 -7 389 -1 l 472 128 q 392 155 428 132 q 330 224 356 178 q 290 344 304 271 q 276 521 276 417 m 889 1000 l 724 1000 l 724 521 q 710 342 724 415 q 670 224 696 269 q 608 156 644 178 q 528 128 572 133 l 528 -7 q 676 33 610 -1 q 790 133 743 68 q 863 290 838 197 q 889 504 889 383 l 889 1000 "},"V":{"ha":1008,"x_min":82,"x_max":929,"o":"m 82 1000 l 392 -6 l 478 -6 l 478 215 l 267 1000 l 82 1000 m 744 1000 l 533 260 l 533 -6 l 604 -6 l 929 1000 l 744 1000 "},"W":{"ha":1483,"x_min":99,"x_max":1386,"o":"m 460 138 l 283 1000 l 99 1000 l 353 -6 l 565 -6 l 714 638 l 714 1000 l 650 1000 l 460 138 m 1201 1000 l 1011 138 l 835 1000 l 769 1000 l 769 611 l 904 -6 l 1117 -6 l 1386 1000 l 1201 1000 "},"X":{"ha":953,"x_min":100,"x_max":853,"o":"m 100 1000 l 371 486 l 117 0 l 306 0 l 449 315 l 449 625 l 286 1000 l 100 1000 m 853 1000 l 667 1000 l 504 653 l 504 343 l 649 0 l 838 0 l 583 486 l 853 1000 "},"Y":{"ha":889,"x_min":74,"x_max":818,"o":"m 632 1000 l 356 333 l 356 0 l 521 0 l 521 407 l 818 1000 l 632 1000 m 260 1000 l 74 1000 l 336 433 l 410 610 l 260 1000 "},"Z":{"ha":875,"x_min":106,"x_max":771,"o":"m 771 1000 l 106 1000 l 106 868 l 610 868 l 582 846 l 106 132 l 106 0 l 771 0 l 771 132 l 267 132 l 294 153 l 771 868 l 771 1000 "},"[":{"ha":444,"x_min":117,"x_max":367,"o":"m 367 917 l 367 917 l 367 1026 l 117 1026 l 117 -83 l 367 -83 l 367 26 l 226 26 l 226 917 l 367 917 "},"\\":{"ha":618,"x_min":46,"x_max":572,"o":"m 46 1083 l 463 -29 l 572 -29 l 156 1083 l 46 1083 "},"]":{"ha":444,"x_min":117,"x_max":367,"o":"m 117 917 l 257 917 l 257 26 l 117 26 l 117 -83 l 367 -83 l 367 1026 l 117 1026 l 117 917 "},"`":{"ha":304,"x_min":32,"x_max":289,"o":"m 32 1054 l 179 861 l 289 861 l 197 1054 l 32 1054 "},"a":{"ha":814,"x_min":96,"x_max":715,"o":"m 250 231 q 267 301 250 274 q 309 344 283 329 q 365 365 335 360 q 422 371 394 371 l 451 371 l 451 467 l 392 467 q 285 452 338 467 q 190 408 232 438 q 122 334 149 379 q 96 226 96 289 q 115 117 96 161 q 166 45 133 72 q 241 6 199 18 q 329 -7 283 -7 q 347 -6 342 -7 l 347 104 q 275 140 300 110 q 250 231 250 169 m 671 226 l 671 238 l 671 414 q 668 510 671 461 q 656 606 665 558 q 622 685 646 653 q 567 735 599 717 q 496 763 535 754 q 417 771 457 771 q 331 763 372 771 q 253 743 289 756 q 191 715 218 731 q 150 685 164 700 l 211 592 q 237 610 219 599 q 276 633 254 622 q 325 651 299 643 q 381 658 351 658 q 438 653 414 658 q 477 630 461 649 q 500 572 493 611 q 507 467 507 533 l 507 181 q 462 133 489 153 q 403 107 435 114 l 403 4 q 492 43 451 17 q 546 103 532 69 q 565 63 551 82 q 596 30 578 44 q 633 7 614 15 q 671 -1 653 -1 l 715 89 q 691 113 700 94 q 678 152 682 131 q 672 194 674 174 q 671 226 671 215 "},"b":{"ha":869,"x_min":117,"x_max":801,"o":"m 117 1054 l 117 0 l 272 0 q 276 47 274 24 q 281 90 279 71 l 281 1054 l 117 1054 m 785 533 q 734 644 767 599 q 661 719 701 690 q 575 760 621 747 q 485 772 529 772 q 405 763 443 772 q 336 735 367 753 l 336 590 q 389 631 360 617 q 453 646 418 646 q 526 624 493 646 q 581 566 558 603 q 617 481 604 529 q 629 381 629 433 q 615 279 629 326 q 577 197 601 232 q 519 142 553 163 q 446 122 486 122 q 385 137 413 122 q 336 175 357 151 l 336 33 q 411 4 368 15 q 501 -7 454 -7 q 634 26 578 -7 q 728 116 690 60 q 783 245 765 172 q 801 396 801 318 q 785 533 801 471 "},"c":{"ha":794,"x_min":94,"x_max":699,"o":"m 625 567 l 699 656 q 602 736 656 708 q 474 768 549 764 l 474 638 q 569 613 533 633 q 625 567 604 592 m 474 129 l 474 -6 q 593 26 544 -1 q 683 107 642 54 l 622 196 q 557 153 592 171 q 474 129 522 135 m 94 382 q 117 235 94 304 q 182 115 140 167 q 283 31 224 63 q 418 -6 343 -1 l 418 129 q 354 158 382 135 q 308 215 326 181 q 278 292 289 249 q 268 386 268 336 q 309 553 268 485 q 418 636 350 621 l 418 768 q 285 731 344 763 q 183 647 226 699 q 117 528 140 596 q 94 382 94 460 "},"d":{"ha":869,"x_min":68,"x_max":754,"o":"m 754 1054 l 589 1054 l 589 90 l 599 0 l 754 0 l 754 1054 m 68 393 q 92 222 68 307 q 168 78 117 136 q 261 13 208 32 q 368 -7 314 -7 q 458 4 415 -7 q 533 33 501 15 l 533 175 q 421 122 488 122 q 348 142 381 122 q 292 198 315 163 q 255 280 268 233 q 242 381 242 326 q 253 483 242 435 q 288 567 265 531 q 344 625 311 604 q 418 646 376 646 q 481 631 453 646 q 533 592 510 617 l 533 735 q 465 763 503 753 q 385 772 426 772 q 274 752 331 772 q 172 688 218 732 q 97 571 126 643 q 68 393 68 499 "},"e":{"ha":901,"x_min":97,"x_max":792,"o":"m 472 772 l 472 644 q 538 622 508 640 q 590 575 568 603 q 624 514 613 547 q 636 446 636 481 l 322 446 l 322 326 l 788 326 q 792 392 792 360 q 769 531 792 464 q 706 649 747 597 q 605 733 664 700 q 472 772 546 765 m 467 128 q 369 147 410 128 q 302 200 329 167 q 263 278 275 233 q 250 376 250 324 q 257 449 250 407 q 283 531 264 492 q 334 602 301 571 q 417 643 367 633 l 417 774 q 292 737 350 769 q 191 652 235 704 q 122 531 147 600 q 97 383 97 461 q 124 232 97 303 q 198 108 151 161 q 309 25 244 56 q 449 -6 374 -6 q 601 23 542 -6 q 706 107 661 51 l 646 199 q 601 165 626 179 q 551 143 576 151 q 504 131 526 135 q 467 128 482 128 "},"f":{"ha":639,"x_min":75,"x_max":579,"o":"m 443 940 q 481 938 454 940 q 526 924 507 935 l 579 1021 q 549 1036 568 1029 q 508 1048 531 1043 q 463 1056 486 1053 q 419 1060 440 1060 q 305 1035 350 1060 q 233 971 260 1011 q 194 877 206 931 q 178 765 182 824 l 75 765 l 75 654 l 175 654 l 175 589 l 175 0 l 340 0 l 340 589 l 340 654 l 461 654 l 461 765 l 343 765 q 350 832 344 800 q 367 888 356 864 q 397 926 379 913 q 443 940 415 940 "},"g":{"ha":926,"x_min":93,"x_max":779,"o":"m 394 -7 q 484 4 442 -7 q 558 32 526 15 l 558 174 q 508 136 536 150 q 447 122 481 122 q 374 143 407 122 q 317 199 340 164 q 280 283 293 235 q 267 385 267 331 q 279 485 267 438 q 315 569 292 533 q 371 625 338 604 q 444 646 404 646 q 508 631 479 646 q 558 592 536 617 l 558 735 q 490 763 528 753 q 410 772 451 772 q 299 753 356 772 q 197 688 243 733 q 122 571 151 643 q 93 393 93 499 q 111 243 93 315 q 167 115 129 171 q 261 26 204 60 q 394 -7 318 -7 m 779 765 l 632 765 l 614 688 l 614 40 q 567 -126 614 -78 q 435 -175 519 -175 q 396 -172 418 -175 q 351 -160 374 -168 q 307 -137 328 -151 q 272 -99 286 -122 l 178 -193 q 300 -282 226 -256 q 450 -308 374 -308 q 572 -292 515 -308 q 673 -237 629 -275 q 744 -142 717 -200 q 778 0 772 -83 l 779 765 "},"h":{"ha":826,"x_min":117,"x_max":750,"o":"m 117 1054 l 117 0 l 281 0 l 281 1054 l 117 1054 m 686 681 q 602 748 644 722 q 499 774 560 774 q 415 760 458 774 q 336 726 372 746 l 336 622 q 398 642 367 636 q 449 649 429 649 q 521 630 494 649 q 562 579 547 611 q 581 505 576 547 q 585 417 585 463 l 585 0 l 750 0 l 750 28 l 750 431 q 749 497 750 463 q 741 564 747 531 q 722 627 735 597 q 686 681 710 657 "},"i":{"ha":396,"x_min":101,"x_max":296,"o":"m 281 765 l 281 0 l 115 0 l 115 765 l 281 765 m 296 1010 q 267 1078 296 1050 q 199 1107 239 1107 q 130 1078 158 1107 q 101 1010 101 1050 q 130 941 101 969 q 199 913 158 913 q 267 941 239 913 q 296 1010 296 969 "},"j":{"ha":444,"x_min":-76,"x_max":342,"o":"m 82 -307 q -6 -296 42 -307 q -76 -269 -53 -285 l -24 -171 q 22 -185 -4 -182 q 60 -189 49 -189 q 126 -153 104 -189 q 155 -62 147 -117 q 162 53 163 -8 q 163 164 161 114 l 163 765 l 328 765 l 328 163 q 328 56 328 111 q 322 -51 328 1 q 301 -149 315 -103 q 260 -231 288 -196 q 190 -286 233 -265 q 82 -307 146 -307 m 342 1010 q 314 1078 342 1050 q 246 1107 286 1107 q 177 1078 206 1107 q 149 1010 149 1050 q 177 941 149 969 q 246 913 206 913 q 314 941 286 913 q 342 1010 342 969 "},"k":{"ha":799,"x_min":117,"x_max":747,"o":"m 443 383 l 713 765 l 528 765 l 338 482 l 338 293 l 560 0 l 747 0 l 443 383 m 117 0 l 282 0 l 282 1054 l 117 1054 l 117 0 "},"l":{"ha":493,"x_min":114,"x_max":435,"o":"m 279 233 l 279 233 l 279 1054 l 114 1054 l 114 258 l 114 242 q 117 184 114 221 q 134 109 121 147 q 174 40 147 71 q 246 -1 200 8 q 281 -6 261 -4 q 322 -7 301 -7 q 363 -6 343 -7 q 399 -4 383 -6 q 435 0 417 -3 l 435 100 q 375 104 403 100 q 326 122 347 108 q 292 161 304 135 q 279 233 279 188 "},"m":{"ha":1244,"x_min":117,"x_max":1128,"o":"m 264 765 l 117 765 l 117 0 l 282 0 l 282 686 l 264 765 m 904 774 q 834 761 872 774 q 760 726 796 749 l 760 619 q 831 643 800 639 q 872 647 863 647 q 928 628 910 647 q 955 578 947 610 q 963 504 963 546 q 964 417 964 463 l 964 0 l 1128 0 l 1128 521 q 1110 622 1128 575 q 1063 702 1093 668 q 991 755 1032 736 q 904 774 950 774 m 669 668 q 587 744 629 718 q 482 771 544 771 q 407 758 444 771 q 338 726 369 746 l 338 619 q 401 641 369 635 q 449 647 432 647 q 505 628 486 647 q 532 578 524 610 q 540 504 540 546 q 540 417 540 463 l 540 0 l 704 0 l 704 431 q 705 497 704 465 q 703 559 706 529 q 694 616 701 589 q 669 668 686 643 "},"n":{"ha":861,"x_min":117,"x_max":750,"o":"m 263 765 l 117 765 l 117 0 l 281 0 l 281 688 l 263 765 m 686 681 q 602 748 644 722 q 499 774 560 774 q 415 760 458 774 q 336 726 372 746 l 336 622 q 398 642 367 636 q 449 649 429 649 q 521 630 494 649 q 562 579 547 611 q 581 505 576 547 q 585 417 585 463 l 585 0 l 750 0 l 750 28 l 750 431 q 749 497 750 463 q 741 564 747 531 q 722 627 735 597 q 686 681 710 657 "},"o":{"ha":899,"x_min":97,"x_max":801,"o":"m 476 769 l 476 642 q 540 612 511 635 q 588 553 568 589 q 619 474 608 518 q 629 379 629 429 q 587 210 629 281 q 476 125 544 140 l 476 -6 q 609 31 549 0 q 712 113 669 63 q 778 232 754 164 q 801 379 801 300 q 778 528 801 458 q 714 649 756 597 q 612 733 672 701 q 476 769 551 765 m 97 382 q 120 235 97 304 q 185 115 143 167 q 286 32 226 64 q 421 -6 346 0 l 421 125 q 357 153 385 131 q 310 212 329 176 q 281 292 292 247 q 271 386 271 336 q 312 556 271 486 q 421 642 353 626 l 421 768 q 289 730 349 761 q 187 648 229 699 q 121 529 144 597 q 97 382 97 461 "},"p":{"ha":868,"x_min":117,"x_max":801,"o":"m 264 765 l 117 765 l 117 -301 l 282 -301 l 282 688 l 264 765 m 785 533 q 735 644 767 599 q 663 719 703 690 q 576 760 622 747 q 486 772 531 772 q 406 763 444 772 q 338 735 368 753 l 338 592 q 390 631 361 617 q 454 646 419 646 q 528 624 496 646 q 583 566 560 603 q 617 481 606 529 q 629 381 629 433 q 616 278 629 326 q 578 196 603 231 q 521 141 554 161 q 447 121 488 121 q 338 174 382 121 l 338 32 q 412 4 369 15 q 501 -7 454 -7 q 634 26 578 -7 q 728 115 690 60 q 783 243 765 171 q 801 393 801 315 q 785 533 801 471 "},"q":{"ha":868,"x_min":68,"x_max":804,"o":"m 68 393 q 86 243 68 315 q 142 115 104 171 q 236 26 179 60 q 369 -7 293 -7 q 459 4 417 -7 q 533 32 501 15 l 533 174 q 484 136 511 150 q 425 122 457 122 q 350 142 383 122 q 292 198 317 163 q 255 281 268 233 q 242 385 242 329 q 254 485 242 438 q 290 569 267 533 q 346 625 313 604 q 419 646 379 646 q 481 631 453 646 q 533 592 510 617 l 533 735 q 465 763 503 753 q 385 772 426 772 q 274 753 331 772 q 172 688 218 733 q 97 571 126 643 q 68 393 68 499 m 754 -89 l 754 765 l 607 765 l 589 688 l 589 -100 q 634 -242 589 -183 q 758 -312 679 -301 q 779 -271 769 -289 q 794 -241 788 -256 q 804 -222 801 -226 q 773 -192 783 -208 q 758 -159 763 -176 q 754 -124 754 -142 q 754 -89 754 -106 "},"r":{"ha":606,"x_min":117,"x_max":547,"o":"m 263 765 l 117 765 l 117 0 l 281 0 l 281 268 l 281 271 l 281 686 l 263 765 m 336 731 l 336 593 q 394 607 364 603 q 454 611 425 611 q 547 600 510 611 l 547 771 q 417 760 465 771 q 336 731 369 750 "},"s":{"ha":728,"x_min":99,"x_max":631,"o":"m 99 547 q 135 435 99 478 q 243 356 171 393 q 289 335 265 344 q 336 319 313 326 l 336 465 q 283 500 304 481 q 261 551 261 519 q 281 613 261 592 q 336 642 301 635 l 336 778 q 247 756 290 774 q 171 710 204 739 q 118 640 138 681 q 99 547 99 599 m 551 604 l 606 717 q 504 762 556 747 q 392 779 453 776 l 392 644 q 474 633 433 642 q 551 604 515 624 m 171 171 l 101 61 q 162 26 133 39 q 218 5 190 13 q 274 -5 246 -3 q 336 -7 303 -7 l 336 119 l 329 119 q 235 135 272 119 q 171 171 199 151 m 392 443 l 392 300 q 461 265 433 285 q 489 210 489 244 q 463 154 489 175 q 392 125 438 133 l 392 -4 q 485 17 442 1 q 561 62 529 33 q 612 130 593 90 q 631 222 631 169 q 608 313 631 276 q 551 373 586 349 q 474 413 517 397 q 392 443 432 429 "},"t":{"ha":568,"x_min":71,"x_max":492,"o":"m 335 232 l 335 232 l 335 654 l 457 654 l 457 765 l 335 765 l 335 982 l 171 982 l 171 765 l 71 765 l 71 654 l 171 654 l 171 242 q 174 184 171 221 q 190 109 178 147 q 229 39 203 71 q 301 -1 256 7 q 337 -6 317 -4 q 378 -7 357 -7 q 419 -6 399 -7 q 456 -4 440 -6 q 492 0 474 -3 l 492 100 q 432 103 460 100 q 382 121 404 107 q 347 160 360 135 q 335 232 335 186 "},"u":{"ha":860,"x_min":111,"x_max":744,"o":"m 276 349 l 276 765 l 111 765 l 111 335 q 112 269 111 303 q 119 201 113 235 q 138 138 125 168 q 175 85 151 108 q 216 47 196 64 q 258 18 236 31 q 307 -1 281 6 q 365 -7 333 -7 q 447 7 406 -7 q 524 40 489 21 l 524 142 q 461 124 493 129 q 411 118 429 118 q 340 137 367 118 q 299 187 313 156 q 281 260 285 218 q 276 349 276 301 m 744 765 l 579 765 l 579 79 l 597 0 l 744 0 l 744 765 "},"v":{"ha":911,"x_min":81,"x_max":831,"o":"m 81 765 l 349 -6 l 428 -6 l 428 221 l 265 765 l 81 765 m 646 765 l 483 221 l 483 -6 l 561 -6 l 831 765 l 646 765 "},"w":{"ha":1265,"x_min":97,"x_max":1169,"o":"m 992 765 l 849 128 l 721 765 l 661 765 l 661 311 l 742 -6 l 954 -6 l 1169 765 l 992 765 m 400 128 l 274 765 l 97 765 l 294 -6 l 507 -6 l 606 351 l 606 765 l 543 765 l 400 128 "},"x":{"ha":924,"x_min":104,"x_max":819,"o":"m 104 765 l 356 383 l 106 0 l 294 0 l 433 229 l 433 514 l 290 765 l 104 765 m 819 765 l 633 765 l 489 536 l 489 247 l 629 0 l 818 0 l 568 383 l 819 765 "},"y":{"ha":913,"x_min":103,"x_max":854,"o":"m 854 765 l 689 765 l 417 0 l 365 -122 q 338 -178 350 -158 q 312 -208 325 -199 q 282 -220 299 -218 q 243 -222 265 -222 q 210 -215 232 -222 q 176 -208 188 -208 q 169 -232 174 -215 q 160 -268 164 -249 q 149 -315 154 -290 q 165 -321 153 -317 q 193 -330 178 -325 q 225 -338 208 -335 q 254 -342 242 -342 q 324 -338 293 -342 q 380 -319 354 -335 q 430 -272 406 -303 q 482 -188 454 -242 q 543 -54 510 -135 q 620 142 576 26 q 722 412 664 258 q 854 765 779 565 m 388 72 l 443 204 l 463 251 l 267 765 l 103 765 l 388 72 "},"z":{"ha":815,"x_min":117,"x_max":699,"o":"m 117 765 l 117 765 l 117 633 l 538 633 l 510 611 l 117 132 l 117 0 l 699 0 l 699 132 l 278 132 l 306 153 l 699 633 l 699 765 l 117 765 "},"|":{"ha":340,"x_min":117,"x_max":226,"o":"m 226 -328 l 226 1097 l 117 1097 l 117 -328 l 226 -328 "},"¡":{"ha":397,"x_min":101,"x_max":296,"o":"m 258 724 l 281 0 l 115 0 l 138 724 l 258 724 m 296 908 q 267 840 296 868 q 199 811 239 811 q 130 840 158 811 q 101 908 101 868 q 130 977 101 949 q 199 1006 158 1006 q 267 977 239 1006 q 296 908 296 949 "},"¢":{"ha":794,"x_min":94,"x_max":699,"o":"m 443 128 q 369 148 401 128 q 315 203 338 168 q 280 285 292 239 q 268 386 268 332 q 281 487 268 440 q 318 567 294 533 q 376 620 342 601 q 450 639 410 639 q 561 617 521 639 q 625 567 601 594 l 699 656 q 609 732 658 704 q 493 767 560 760 l 493 878 l 383 878 l 383 764 q 265 719 318 753 q 174 635 211 685 q 115 520 136 585 q 94 382 94 456 q 115 244 94 308 q 172 128 135 179 q 263 43 210 76 q 383 -1 317 10 l 383 -111 l 493 -111 l 493 -4 q 600 31 556 3 q 683 107 644 58 l 622 196 q 546 147 588 167 q 443 128 504 128 "},"£":{"ha":714,"x_min":83,"x_max":643,"o":"m 83 111 l 83 0 l 593 0 l 593 111 l 349 111 l 349 543 l 497 543 l 497 654 l 351 654 q 351 730 351 689 q 359 806 351 771 q 388 865 367 842 q 451 888 408 888 q 530 882 490 888 q 589 865 569 876 l 643 968 q 565 999 619 983 q 428 1007 511 1014 q 292 961 340 1000 q 219 869 243 922 q 191 758 196 817 q 186 654 186 700 l 83 654 l 83 543 l 183 543 l 183 111 l 83 111 "},"¤":{"ha":919,"x_min":106,"x_max":814,"o":"m 299 760 l 203 875 l 106 778 l 226 679 q 183 508 183 604 q 194 416 183 460 q 225 336 204 372 l 106 238 l 203 140 l 297 254 q 432 204 351 211 l 432 293 q 342 367 374 306 q 310 513 310 429 q 343 651 310 593 q 432 724 376 710 l 432 813 q 360 794 393 808 q 299 760 326 781 m 738 507 q 694 679 738 604 l 814 778 l 717 875 l 624 763 q 562 797 596 783 q 488 813 528 810 l 488 725 q 538 699 515 718 q 577 650 561 679 q 601 584 593 621 q 610 506 610 547 q 576 366 610 424 q 488 294 542 308 l 488 204 q 560 220 526 207 q 622 254 594 233 l 717 140 l 814 238 l 694 338 q 738 507 738 411 "},"¥":{"ha":901,"x_min":79,"x_max":824,"o":"m 824 1000 l 638 1000 l 451 551 l 438 551 l 265 1000 l 79 1000 l 275 579 l 139 579 l 139 468 l 326 468 l 335 449 l 549 449 l 557 468 l 763 468 l 763 579 l 613 579 l 824 1000 m 526 393 l 361 393 l 361 385 l 139 385 l 139 274 l 361 274 l 361 0 l 526 0 l 526 274 l 763 274 l 763 385 l 526 385 l 526 393 "},"¨":{"ha":731,"x_min":25,"x_max":622,"o":"m 622 964 q 594 1033 622 1004 q 525 1061 565 1061 q 456 1033 485 1061 q 428 964 428 1004 q 456 895 428 924 q 525 867 485 867 q 594 895 565 867 q 622 964 622 924 m 219 964 q 191 1033 219 1004 q 122 1061 163 1061 q 53 1033 82 1061 q 25 964 25 1004 q 53 895 25 924 q 122 867 82 867 q 191 895 163 867 q 219 964 219 924 "},"«":{"ha":999,"x_min":104,"x_max":893,"o":"m 546 724 l 360 724 l 104 410 l 289 410 l 546 724 m 636 410 l 893 724 l 707 724 l 451 410 l 636 410 m 104 354 l 356 42 l 544 42 l 290 354 l 104 354 m 451 354 l 703 42 l 892 42 l 638 354 l 451 354 "},"´":{"ha":304,"x_min":32,"x_max":289,"o":"m 289 1054 l 289 1054 l 124 1054 l 32 861 l 142 861 l 289 1054 "},"¸":{"ha":400,"x_min":65,"x_max":317,"o":"m 157 -96 l 157 -96 l 249 10 l 144 10 l 65 -125 l 121 -150 q 164 -143 146 -143 q 217 -160 197 -143 q 236 -200 236 -176 q 163 -251 236 -251 l 163 -329 q 275 -294 233 -329 q 317 -197 317 -260 q 308 -158 317 -178 q 285 -123 300 -139 q 250 -97 271 -107 q 204 -86 229 -86 q 157 -96 181 -86 "},"»":{"ha":999,"x_min":106,"x_max":894,"o":"m 894 410 l 639 724 l 453 724 l 710 410 l 894 410 m 547 410 l 292 724 l 106 724 l 363 410 l 547 410 m 361 354 l 107 42 l 296 42 l 546 354 l 361 354 m 454 42 l 643 42 l 893 354 l 708 354 l 454 42 "},"¿":{"ha":689,"x_min":92,"x_max":625,"o":"m 389 735 q 367 647 389 682 q 312 584 344 611 q 240 533 279 557 q 169 475 201 508 q 114 394 136 442 q 92 274 92 346 q 117 156 92 207 q 183 68 142 104 q 280 13 225 32 q 394 -5 335 -5 q 520 6 457 -5 q 624 43 583 17 q 604 82 615 61 q 584 121 593 103 q 568 151 575 139 q 560 165 561 164 q 541 154 551 161 q 512 140 531 147 q 462 131 493 133 q 382 132 431 128 q 331 148 356 135 q 287 180 306 161 q 257 222 268 199 q 246 268 246 246 q 265 356 246 322 q 315 414 285 389 q 379 462 344 439 q 444 519 414 485 q 493 603 474 553 q 513 735 513 654 l 389 735 m 353 918 q 381 849 353 878 q 450 821 410 821 q 519 849 490 821 q 547 918 547 878 q 519 987 547 958 q 450 1015 490 1015 q 381 987 410 1015 q 353 918 353 958 "},"À":{"ha":1031,"x_min":86,"x_max":944,"o":"m 944 0 l 597 999 l 435 999 l 86 0 l 256 0 l 517 749 l 776 0 l 944 0 m 607 318 l 425 318 l 386 207 l 646 207 l 607 318 m 386 1289 l 533 1096 l 643 1096 l 551 1289 l 386 1289 "},"Á":{"ha":1031,"x_min":86,"x_max":944,"o":"m 944 0 l 597 999 l 435 999 l 86 0 l 256 0 l 517 749 l 776 0 l 944 0 m 607 318 l 425 318 l 386 207 l 646 207 l 607 318 m 643 1289 l 643 1289 l 478 1289 l 386 1096 l 496 1096 l 643 1289 "},"Â":{"ha":1031,"x_min":86,"x_max":944,"o":"m 944 0 l 597 999 l 435 999 l 86 0 l 256 0 l 517 749 l 776 0 l 944 0 m 607 318 l 425 318 l 386 207 l 646 207 l 607 318 m 453 1289 l 306 1096 l 456 1096 l 486 1153 l 486 1289 l 453 1289 m 574 1096 l 724 1096 l 576 1289 l 542 1289 l 542 1151 l 574 1096 "},"Ã":{"ha":1031,"x_min":86,"x_max":944,"o":"m 944 0 l 597 999 l 435 999 l 86 0 l 256 0 l 517 749 l 776 0 l 944 0 m 607 318 l 425 318 l 386 207 l 646 207 l 607 318 m 275 1143 l 358 1107 q 389 1155 371 1133 q 429 1176 407 1176 q 472 1169 451 1176 q 514 1153 493 1163 q 557 1138 535 1144 q 603 1131 579 1131 q 697 1162 657 1131 q 754 1253 738 1193 l 667 1279 q 641 1233 656 1244 q 603 1222 626 1222 q 566 1229 586 1222 q 524 1245 546 1236 q 478 1261 503 1254 q 429 1268 454 1268 q 378 1258 401 1268 q 335 1229 354 1247 q 300 1189 315 1211 q 275 1143 285 1167 "},"Ä":{"ha":1031,"x_min":86,"x_max":944,"o":"m 944 0 l 597 999 l 435 999 l 86 0 l 256 0 l 517 749 l 776 0 l 944 0 m 607 318 l 425 318 l 386 207 l 646 207 l 607 318 m 828 1199 q 799 1267 828 1239 q 731 1296 771 1296 q 662 1267 690 1296 q 633 1199 633 1239 q 662 1130 633 1158 q 731 1101 690 1101 q 799 1130 771 1101 q 828 1199 828 1158 m 425 1199 q 397 1267 425 1239 q 328 1296 368 1296 q 259 1267 288 1296 q 231 1199 231 1239 q 259 1130 231 1158 q 328 1101 288 1101 q 397 1130 368 1101 q 425 1199 425 1158 "},"Å":{"ha":1031,"x_min":86,"x_max":944,"o":"m 944 0 l 597 999 l 435 999 l 86 0 l 256 0 l 517 749 l 776 0 l 944 0 m 607 318 l 425 318 l 386 207 l 646 207 l 607 318 m 346 1265 q 357 1206 346 1233 q 387 1156 368 1178 q 431 1118 406 1133 q 486 1099 457 1103 l 486 1182 q 444 1214 461 1192 q 428 1265 428 1236 q 444 1315 428 1293 q 486 1347 461 1338 l 486 1431 q 431 1410 457 1425 q 387 1374 406 1396 q 357 1324 368 1351 q 346 1265 346 1296 m 542 1431 l 542 1347 q 586 1316 569 1339 q 603 1265 603 1293 q 586 1213 603 1236 q 542 1182 569 1190 l 542 1097 q 598 1118 572 1103 q 642 1156 624 1133 q 672 1206 661 1178 q 683 1265 683 1233 q 672 1324 683 1296 q 642 1374 661 1353 q 598 1411 624 1396 q 542 1431 572 1426 "},"Ç":{"ha":911,"x_min":107,"x_max":801,"o":"m 689 807 l 801 907 q 547 1014 699 1007 l 547 881 q 623 860 588 878 q 689 807 658 842 m 547 128 l 547 -7 q 686 24 622 -3 q 801 101 750 51 l 689 201 q 624 149 660 167 q 547 128 588 132 m 107 504 q 136 291 107 383 q 217 135 165 199 q 338 35 268 71 q 492 -6 408 0 l 492 128 q 408 158 447 133 q 338 228 368 182 q 291 342 308 274 q 272 504 274 410 q 291 667 274 599 q 338 780 308 735 q 408 849 368 825 q 492 879 447 872 l 492 1014 q 338 973 408 1008 q 217 874 268 938 q 136 717 165 810 q 107 504 107 625 m 467 -96 l 467 -96 l 558 10 l 454 10 l 375 -125 l 431 -150 q 474 -143 456 -143 q 526 -160 507 -143 q 546 -200 546 -176 q 472 -251 546 -251 l 472 -329 q 585 -294 543 -329 q 626 -197 626 -260 q 618 -158 626 -178 q 595 -123 610 -139 q 560 -97 581 -107 q 514 -86 539 -86 q 467 -96 490 -86 "},"È":{"ha":853,"x_min":129,"x_max":754,"o":"m 129 1000 l 129 0 l 294 0 l 294 1000 l 129 1000 m 713 450 l 713 561 l 350 561 l 350 450 l 713 450 m 350 124 l 350 0 l 754 0 l 754 124 l 350 124 m 754 1000 l 350 1000 l 350 876 l 754 876 l 754 1000 m 297 1289 l 444 1096 l 554 1096 l 463 1289 l 297 1289 "},"É":{"ha":853,"x_min":129,"x_max":754,"o":"m 129 1000 l 129 0 l 294 0 l 294 1000 l 129 1000 m 713 450 l 713 561 l 350 561 l 350 450 l 713 450 m 350 124 l 350 0 l 754 0 l 754 124 l 350 124 m 754 1000 l 350 1000 l 350 876 l 754 876 l 754 1000 m 554 1289 l 554 1289 l 389 1289 l 297 1096 l 407 1096 l 554 1289 "},"Ê":{"ha":853,"x_min":129,"x_max":754,"o":"m 129 1000 l 129 0 l 294 0 l 294 1000 l 129 1000 m 713 450 l 713 561 l 350 561 l 350 450 l 713 450 m 350 124 l 350 0 l 754 0 l 754 124 l 350 124 m 754 1000 l 350 1000 l 350 876 l 754 876 l 754 1000 m 364 1289 l 217 1096 l 367 1096 l 397 1153 l 397 1289 l 364 1289 m 485 1096 l 635 1096 l 488 1289 l 453 1289 l 453 1151 l 485 1096 "},"Ë":{"ha":853,"x_min":129,"x_max":754,"o":"m 129 1000 l 129 0 l 294 0 l 294 1000 l 129 1000 m 713 450 l 713 561 l 350 561 l 350 450 l 713 450 m 350 124 l 350 0 l 754 0 l 754 124 l 350 124 m 754 1000 l 350 1000 l 350 876 l 754 876 l 754 1000 m 739 1199 q 710 1267 739 1239 q 642 1296 682 1296 q 573 1267 601 1296 q 544 1199 544 1239 q 573 1130 544 1158 q 642 1101 601 1101 q 710 1130 682 1101 q 739 1199 739 1158 m 336 1199 q 308 1267 336 1239 q 239 1296 279 1296 q 170 1267 199 1296 q 142 1199 142 1239 q 170 1130 142 1158 q 239 1101 199 1101 q 308 1130 279 1101 q 336 1199 336 1158 "},"Ì":{"ha":418,"x_min":81,"x_max":338,"o":"m 293 0 l 293 1000 l 128 1000 l 128 0 l 293 0 m 81 1289 l 228 1096 l 338 1096 l 246 1289 l 81 1289 "},"Í":{"ha":418,"x_min":81,"x_max":338,"o":"m 293 0 l 293 1000 l 128 1000 l 128 0 l 293 0 m 338 1289 l 338 1289 l 172 1289 l 81 1096 l 190 1096 l 338 1289 "},"Î":{"ha":418,"x_min":1,"x_max":419,"o":"m 293 0 l 293 1000 l 128 1000 l 128 0 l 293 0 m 149 1289 l 1 1096 l 151 1096 l 182 1153 l 182 1289 l 149 1289 m 269 1096 l 419 1096 l 272 1289 l 238 1289 l 238 1151 l 269 1096 "},"Ï":{"ha":418,"x_min":-74,"x_max":524,"o":"m 293 0 l 293 1000 l 128 1000 l 128 0 l 293 0 m 524 1199 q 495 1267 524 1239 q 426 1296 467 1296 q 358 1267 386 1296 q 329 1199 329 1239 q 358 1130 329 1158 q 426 1101 386 1101 q 495 1130 467 1101 q 524 1199 524 1158 m 121 1199 q 92 1267 121 1239 q 24 1296 64 1296 q -45 1267 -17 1296 q -74 1199 -74 1239 q -45 1130 -74 1158 q 24 1101 -17 1101 q 92 1130 64 1101 q 121 1199 121 1158 "},"Ð":{"ha":1044,"x_min":10,"x_max":938,"o":"m 131 1000 l 131 569 l 10 569 l 10 432 l 131 432 l 131 0 l 293 0 l 293 1000 l 131 1000 m 432 1000 l 349 1000 l 349 876 l 388 876 q 578 846 504 876 q 694 766 651 815 q 751 656 736 717 q 767 532 767 594 q 693 225 767 331 q 454 119 619 119 l 349 119 l 349 0 l 508 0 q 567 5 528 0 q 654 26 607 10 q 752 77 701 43 q 844 170 803 111 q 911 317 885 229 q 938 528 938 404 q 906 701 938 617 q 812 853 875 786 q 653 960 749 919 q 432 1000 558 1000 m 469 432 l 469 569 l 349 569 l 349 432 l 469 432 "},"Ñ":{"ha":972,"x_min":125,"x_max":847,"o":"m 682 1000 l 682 311 l 346 903 l 346 592 l 682 0 l 847 0 l 847 1000 l 682 1000 m 125 0 l 290 0 l 290 1000 l 125 1000 l 125 0 m 246 1143 l 329 1107 q 360 1155 342 1133 q 400 1176 378 1176 q 443 1169 422 1176 q 485 1153 464 1163 q 528 1138 506 1144 q 574 1131 550 1131 q 668 1162 628 1131 q 725 1253 708 1193 l 638 1279 q 612 1233 626 1244 q 574 1222 597 1222 q 537 1229 557 1222 q 495 1245 517 1236 q 449 1261 474 1254 q 400 1268 425 1268 q 349 1258 372 1268 q 306 1229 325 1247 q 271 1189 286 1211 q 246 1143 256 1167 "},"Ò":{"ha":1042,"x_min":104,"x_max":938,"o":"m 104 504 q 133 290 104 383 q 215 133 163 197 q 338 33 267 68 q 493 -7 410 -1 l 493 128 q 408 156 449 132 q 338 225 368 179 q 289 340 307 271 q 269 504 271 408 q 289 669 271 600 q 337 783 307 738 q 407 851 367 828 q 493 879 447 874 l 493 1014 q 338 975 410 1010 q 215 876 267 940 q 133 718 163 811 q 104 504 104 625 m 549 1014 l 549 881 q 633 853 593 876 q 704 783 674 829 q 753 669 735 738 q 772 504 771 600 q 753 340 771 408 q 705 226 735 271 q 635 157 675 181 q 549 128 594 133 l 549 -7 q 703 33 632 -1 q 826 133 774 68 q 908 290 878 197 q 938 504 938 383 q 908 718 938 625 q 826 876 878 811 q 703 975 774 940 q 549 1014 632 1010 m 392 1289 l 539 1096 l 649 1096 l 557 1289 l 392 1289 "},"Ó":{"ha":1042,"x_min":104,"x_max":938,"o":"m 104 504 q 133 290 104 383 q 215 133 163 197 q 338 33 267 68 q 493 -7 410 -1 l 493 128 q 408 156 449 132 q 338 225 368 179 q 289 340 307 271 q 269 504 271 408 q 289 669 271 600 q 337 783 307 738 q 407 851 367 828 q 493 879 447 874 l 493 1014 q 338 975 410 1010 q 215 876 267 940 q 133 718 163 811 q 104 504 104 625 m 549 1014 l 549 881 q 633 853 593 876 q 704 783 674 829 q 753 669 735 738 q 772 504 771 600 q 753 340 771 408 q 705 226 735 271 q 635 157 675 181 q 549 128 594 133 l 549 -7 q 703 33 632 -1 q 826 133 774 68 q 908 290 878 197 q 938 504 938 383 q 908 718 938 625 q 826 876 878 811 q 703 975 774 940 q 549 1014 632 1010 m 649 1289 l 649 1289 l 483 1289 l 392 1096 l 501 1096 l 649 1289 "},"Ô":{"ha":1042,"x_min":104,"x_max":938,"o":"m 104 504 q 133 290 104 383 q 215 133 163 197 q 338 33 267 68 q 493 -7 410 -1 l 493 128 q 408 156 449 132 q 338 225 368 179 q 289 340 307 271 q 269 504 271 408 q 289 669 271 600 q 337 783 307 738 q 407 851 367 828 q 493 879 447 874 l 493 1014 q 338 975 410 1010 q 215 876 267 940 q 133 718 163 811 q 104 504 104 625 m 549 1014 l 549 881 q 633 853 593 876 q 704 783 674 829 q 753 669 735 738 q 772 504 771 600 q 753 340 771 408 q 705 226 735 271 q 635 157 675 181 q 549 128 594 133 l 549 -7 q 703 33 632 -1 q 826 133 774 68 q 908 290 878 197 q 938 504 938 383 q 908 718 938 625 q 826 876 878 811 q 703 975 774 940 q 549 1014 632 1010 m 458 1289 l 311 1096 l 461 1096 l 492 1153 l 492 1289 l 458 1289 m 579 1096 l 729 1096 l 582 1289 l 547 1289 l 547 1151 l 579 1096 "},"Õ":{"ha":1042,"x_min":104,"x_max":938,"o":"m 104 504 q 133 290 104 383 q 215 133 163 197 q 338 33 267 68 q 493 -7 410 -1 l 493 128 q 408 156 449 132 q 338 225 368 179 q 289 340 307 271 q 269 504 271 408 q 289 669 271 600 q 337 783 307 738 q 407 851 367 828 q 493 879 447 874 l 493 1014 q 338 975 410 1010 q 215 876 267 940 q 133 718 163 811 q 104 504 104 625 m 549 1014 l 549 881 q 633 853 593 876 q 704 783 674 829 q 753 669 735 738 q 772 504 771 600 q 753 340 771 408 q 705 226 735 271 q 635 157 675 181 q 549 128 594 133 l 549 -7 q 703 33 632 -1 q 826 133 774 68 q 908 290 878 197 q 938 504 938 383 q 908 718 938 625 q 826 876 878 811 q 703 975 774 940 q 549 1014 632 1010 m 281 1143 l 364 1107 q 394 1155 376 1133 q 435 1176 413 1176 q 478 1169 457 1176 q 519 1153 499 1163 q 563 1138 540 1144 q 608 1131 585 1131 q 703 1162 663 1131 q 760 1253 743 1193 l 672 1279 q 647 1233 661 1244 q 608 1222 632 1222 q 572 1229 592 1222 q 530 1245 551 1236 q 484 1261 508 1254 q 435 1268 460 1268 q 383 1258 407 1268 q 340 1229 360 1247 q 306 1189 321 1211 q 281 1143 290 1167 "},"Ö":{"ha":1042,"x_min":104,"x_max":938,"o":"m 104 504 q 133 290 104 383 q 215 133 163 197 q 338 33 267 68 q 493 -7 410 -1 l 493 128 q 408 156 449 132 q 338 225 368 179 q 289 340 307 271 q 269 504 271 408 q 289 669 271 600 q 337 783 307 738 q 407 851 367 828 q 493 879 447 874 l 493 1014 q 338 975 410 1010 q 215 876 267 940 q 133 718 163 811 q 104 504 104 625 m 549 1014 l 549 881 q 633 853 593 876 q 704 783 674 829 q 753 669 735 738 q 772 504 771 600 q 753 340 771 408 q 705 226 735 271 q 635 157 675 181 q 549 128 594 133 l 549 -7 q 703 33 632 -1 q 826 133 774 68 q 908 290 878 197 q 938 504 938 383 q 908 718 938 625 q 826 876 878 811 q 703 975 774 940 q 549 1014 632 1010 m 833 1199 q 805 1267 833 1239 q 736 1296 776 1296 q 667 1267 696 1296 q 639 1199 639 1239 q 667 1130 639 1158 q 736 1101 696 1101 q 805 1130 776 1101 q 833 1199 833 1158 m 431 1199 q 402 1267 431 1239 q 333 1296 374 1296 q 265 1267 293 1296 q 236 1199 236 1239 q 265 1130 236 1158 q 333 1101 293 1101 q 402 1130 374 1101 q 431 1199 431 1158 "},"×":{"ha":815,"x_min":106,"x_max":710,"o":"m 514 383 l 710 682 l 524 682 l 407 490 l 393 490 l 292 682 l 106 682 l 301 383 l 107 83 l 296 83 l 407 274 l 421 274 l 519 83 l 708 83 l 514 383 "},"Ù":{"ha":1000,"x_min":111,"x_max":889,"o":"m 276 521 l 276 1000 l 111 1000 l 111 504 q 137 290 111 383 q 209 133 163 197 q 322 33 256 68 q 472 -7 389 -1 l 472 128 q 392 155 428 132 q 330 224 356 178 q 290 344 304 271 q 276 521 276 417 m 889 1000 l 724 1000 l 724 521 q 710 342 724 415 q 670 224 696 269 q 608 156 644 178 q 528 128 572 133 l 528 -7 q 676 33 610 -1 q 790 133 743 68 q 863 290 838 197 q 889 504 889 383 l 889 1000 m 371 1289 l 518 1096 l 628 1096 l 536 1289 l 371 1289 "},"Ú":{"ha":1000,"x_min":111,"x_max":889,"o":"m 276 521 l 276 1000 l 111 1000 l 111 504 q 137 290 111 383 q 209 133 163 197 q 322 33 256 68 q 472 -7 389 -1 l 472 128 q 392 155 428 132 q 330 224 356 178 q 290 344 304 271 q 276 521 276 417 m 889 1000 l 724 1000 l 724 521 q 710 342 724 415 q 670 224 696 269 q 608 156 644 178 q 528 128 572 133 l 528 -7 q 676 33 610 -1 q 790 133 743 68 q 863 290 838 197 q 889 504 889 383 l 889 1000 m 628 1289 l 628 1289 l 463 1289 l 371 1096 l 481 1096 l 628 1289 "},"Û":{"ha":1000,"x_min":111,"x_max":889,"o":"m 276 521 l 276 1000 l 111 1000 l 111 504 q 137 290 111 383 q 209 133 163 197 q 322 33 256 68 q 472 -7 389 -1 l 472 128 q 392 155 428 132 q 330 224 356 178 q 290 344 304 271 q 276 521 276 417 m 889 1000 l 724 1000 l 724 521 q 710 342 724 415 q 670 224 696 269 q 608 156 644 178 q 528 128 572 133 l 528 -7 q 676 33 610 -1 q 790 133 743 68 q 863 290 838 197 q 889 504 889 383 l 889 1000 m 438 1289 l 290 1096 l 440 1096 l 471 1153 l 471 1289 l 438 1289 m 558 1096 l 708 1096 l 561 1289 l 526 1289 l 526 1151 l 558 1096 "},"Ü":{"ha":1000,"x_min":111,"x_max":889,"o":"m 276 521 l 276 1000 l 111 1000 l 111 504 q 137 290 111 383 q 209 133 163 197 q 322 33 256 68 q 472 -7 389 -1 l 472 128 q 392 155 428 132 q 330 224 356 178 q 290 344 304 271 q 276 521 276 417 m 889 1000 l 724 1000 l 724 521 q 710 342 724 415 q 670 224 696 269 q 608 156 644 178 q 528 128 572 133 l 528 -7 q 676 33 610 -1 q 790 133 743 68 q 863 290 838 197 q 889 504 889 383 l 889 1000 m 813 1199 q 784 1267 813 1239 q 715 1296 756 1296 q 647 1267 675 1296 q 618 1199 618 1239 q 647 1130 618 1158 q 715 1101 675 1101 q 784 1130 756 1101 q 813 1199 813 1158 m 410 1199 q 381 1267 410 1239 q 313 1296 353 1296 q 244 1267 272 1296 q 215 1199 215 1239 q 244 1130 215 1158 q 313 1101 272 1101 q 381 1130 353 1101 q 410 1199 410 1158 "},"Ý":{"ha":889,"x_min":74,"x_max":818,"o":"m 632 1000 l 356 333 l 356 0 l 521 0 l 521 407 l 818 1000 l 632 1000 m 260 1000 l 74 1000 l 336 433 l 410 610 l 260 1000 m 572 1289 l 572 1289 l 407 1289 l 315 1096 l 425 1096 l 572 1289 "},"Þ":{"ha":1157,"x_min":124,"x_max":760,"o":"m 124 1000 l 124 0 l 286 0 l 286 1000 l 124 1000 m 411 889 l 342 889 l 342 765 l 408 765 q 509 746 471 765 q 568 697 547 726 q 596 636 589 668 q 603 579 603 604 q 588 477 603 518 q 548 413 572 436 q 494 379 524 389 q 435 369 464 369 l 342 369 l 342 250 l 407 250 q 551 273 486 250 q 662 338 615 296 q 734 442 708 381 q 760 579 760 503 q 729 709 760 651 q 649 807 699 767 q 538 868 600 847 q 411 889 475 889 "},"ß":{"ha":889,"x_min":110,"x_max":789,"o":"m 624 526 q 669 553 647 532 q 707 603 690 574 q 736 670 724 633 q 753 743 749 707 q 730 882 753 822 q 666 981 707 942 q 568 1041 625 1021 q 443 1061 511 1061 q 383 1058 411 1061 q 331 1047 356 1054 l 331 882 q 447 933 369 933 q 558 890 514 933 q 601 743 601 846 q 585 659 597 692 q 557 607 574 626 q 519 580 540 588 q 476 572 499 572 l 400 572 l 400 463 l 496 463 q 551 449 525 463 q 594 413 576 436 q 623 357 613 389 q 633 289 633 325 q 608 160 633 211 q 531 110 583 110 q 433 122 465 110 q 376 144 400 133 l 339 40 q 365 25 351 33 q 402 10 379 17 q 461 -2 425 3 q 554 -7 497 -7 q 593 -4 569 -7 q 642 8 617 -1 q 694 38 668 18 q 742 90 721 57 q 776 172 763 122 q 789 289 789 221 q 774 388 789 344 q 737 460 760 431 q 684 506 714 490 q 624 526 654 522 m 110 538 l 110 0 l 275 0 l 275 1024 q 144 849 179 971 q 110 538 110 726 "},"à":{"ha":814,"x_min":96,"x_max":715,"o":"m 250 231 q 267 301 250 274 q 309 344 283 329 q 365 365 335 360 q 422 371 394 371 l 451 371 l 451 467 l 392 467 q 285 452 338 467 q 190 408 232 438 q 122 334 149 379 q 96 226 96 289 q 115 117 96 161 q 166 45 133 72 q 241 6 199 18 q 329 -7 283 -7 q 347 -6 342 -7 l 347 104 q 275 140 300 110 q 250 231 250 169 m 671 226 l 671 238 l 671 414 q 668 510 671 461 q 656 606 665 558 q 622 685 646 653 q 567 735 599 717 q 496 763 535 754 q 417 771 457 771 q 331 763 372 771 q 253 743 289 756 q 191 715 218 731 q 150 685 164 700 l 211 592 q 237 610 219 599 q 276 633 254 622 q 325 651 299 643 q 381 658 351 658 q 438 653 414 658 q 477 630 461 649 q 500 572 493 611 q 507 467 507 533 l 507 181 q 462 133 489 153 q 403 107 435 114 l 403 4 q 492 43 451 17 q 546 103 532 69 q 565 63 551 82 q 596 30 578 44 q 633 7 614 15 q 671 -1 653 -1 l 715 89 q 691 113 700 94 q 678 152 682 131 q 672 194 674 174 q 671 226 671 215 m 278 1054 l 425 861 l 535 861 l 443 1054 l 278 1054 "},"á":{"ha":814,"x_min":96,"x_max":715,"o":"m 250 231 q 267 301 250 274 q 309 344 283 329 q 365 365 335 360 q 422 371 394 371 l 451 371 l 451 467 l 392 467 q 285 452 338 467 q 190 408 232 438 q 122 334 149 379 q 96 226 96 289 q 115 117 96 161 q 166 45 133 72 q 241 6 199 18 q 329 -7 283 -7 q 347 -6 342 -7 l 347 104 q 275 140 300 110 q 250 231 250 169 m 671 226 l 671 238 l 671 414 q 668 510 671 461 q 656 606 665 558 q 622 685 646 653 q 567 735 599 717 q 496 763 535 754 q 417 771 457 771 q 331 763 372 771 q 253 743 289 756 q 191 715 218 731 q 150 685 164 700 l 211 592 q 237 610 219 599 q 276 633 254 622 q 325 651 299 643 q 381 658 351 658 q 438 653 414 658 q 477 630 461 649 q 500 572 493 611 q 507 467 507 533 l 507 181 q 462 133 489 153 q 403 107 435 114 l 403 4 q 492 43 451 17 q 546 103 532 69 q 565 63 551 82 q 596 30 578 44 q 633 7 614 15 q 671 -1 653 -1 l 715 89 q 691 113 700 94 q 678 152 682 131 q 672 194 674 174 q 671 226 671 215 m 535 1054 l 535 1054 l 369 1054 l 278 861 l 388 861 l 535 1054 "},"â":{"ha":814,"x_min":96,"x_max":715,"o":"m 250 231 q 267 301 250 274 q 309 344 283 329 q 365 365 335 360 q 422 371 394 371 l 451 371 l 451 467 l 392 467 q 285 452 338 467 q 190 408 232 438 q 122 334 149 379 q 96 226 96 289 q 115 117 96 161 q 166 45 133 72 q 241 6 199 18 q 329 -7 283 -7 q 347 -6 342 -7 l 347 104 q 275 140 300 110 q 250 231 250 169 m 671 226 l 671 238 l 671 414 q 668 510 671 461 q 656 606 665 558 q 622 685 646 653 q 567 735 599 717 q 496 763 535 754 q 417 771 457 771 q 331 763 372 771 q 253 743 289 756 q 191 715 218 731 q 150 685 164 700 l 211 592 q 237 610 219 599 q 276 633 254 622 q 325 651 299 643 q 381 658 351 658 q 438 653 414 658 q 477 630 461 649 q 500 572 493 611 q 507 467 507 533 l 507 181 q 462 133 489 153 q 403 107 435 114 l 403 4 q 492 43 451 17 q 546 103 532 69 q 565 63 551 82 q 596 30 578 44 q 633 7 614 15 q 671 -1 653 -1 l 715 89 q 691 113 700 94 q 678 152 682 131 q 672 194 674 174 q 671 226 671 215 m 344 1054 l 197 861 l 347 861 l 378 918 l 378 1054 l 344 1054 m 465 861 l 615 861 l 468 1054 l 433 1054 l 433 917 l 465 861 "},"ã":{"ha":814,"x_min":96,"x_max":715,"o":"m 250 231 q 267 301 250 274 q 309 344 283 329 q 365 365 335 360 q 422 371 394 371 l 451 371 l 451 467 l 392 467 q 285 452 338 467 q 190 408 232 438 q 122 334 149 379 q 96 226 96 289 q 115 117 96 161 q 166 45 133 72 q 241 6 199 18 q 329 -7 283 -7 q 347 -6 342 -7 l 347 104 q 275 140 300 110 q 250 231 250 169 m 671 226 l 671 238 l 671 414 q 668 510 671 461 q 656 606 665 558 q 622 685 646 653 q 567 735 599 717 q 496 763 535 754 q 417 771 457 771 q 331 763 372 771 q 253 743 289 756 q 191 715 218 731 q 150 685 164 700 l 211 592 q 237 610 219 599 q 276 633 254 622 q 325 651 299 643 q 381 658 351 658 q 438 653 414 658 q 477 630 461 649 q 500 572 493 611 q 507 467 507 533 l 507 181 q 462 133 489 153 q 403 107 435 114 l 403 4 q 492 43 451 17 q 546 103 532 69 q 565 63 551 82 q 596 30 578 44 q 633 7 614 15 q 671 -1 653 -1 l 715 89 q 691 113 700 94 q 678 152 682 131 q 672 194 674 174 q 671 226 671 215 m 167 908 l 250 872 q 281 920 263 899 q 321 942 299 942 q 364 935 343 942 q 406 919 385 928 q 449 903 426 910 q 494 896 471 896 q 589 927 549 896 q 646 1018 629 958 l 558 1044 q 533 999 547 1010 q 494 988 518 988 q 458 994 478 988 q 416 1010 438 1001 q 370 1026 394 1019 q 321 1033 346 1033 q 269 1023 293 1033 q 226 994 246 1013 q 192 954 207 976 q 167 908 176 932 "},"ä":{"ha":814,"x_min":96,"x_max":719,"o":"m 250 231 q 267 301 250 274 q 309 344 283 329 q 365 365 335 360 q 422 371 394 371 l 451 371 l 451 467 l 392 467 q 285 452 338 467 q 190 408 232 438 q 122 334 149 379 q 96 226 96 289 q 115 117 96 161 q 166 45 133 72 q 241 6 199 18 q 329 -7 283 -7 q 347 -6 342 -7 l 347 104 q 275 140 300 110 q 250 231 250 169 m 671 226 l 671 238 l 671 414 q 668 510 671 461 q 656 606 665 558 q 622 685 646 653 q 567 735 599 717 q 496 763 535 754 q 417 771 457 771 q 331 763 372 771 q 253 743 289 756 q 191 715 218 731 q 150 685 164 700 l 211 592 q 237 610 219 599 q 276 633 254 622 q 325 651 299 643 q 381 658 351 658 q 438 653 414 658 q 477 630 461 649 q 500 572 493 611 q 507 467 507 533 l 507 181 q 462 133 489 153 q 403 107 435 114 l 403 4 q 492 43 451 17 q 546 103 532 69 q 565 63 551 82 q 596 30 578 44 q 633 7 614 15 q 671 -1 653 -1 l 715 89 q 691 113 700 94 q 678 152 682 131 q 672 194 674 174 q 671 226 671 215 m 719 964 q 691 1033 719 1004 q 622 1061 663 1061 q 553 1033 582 1061 q 525 964 525 1004 q 553 895 525 924 q 622 867 582 867 q 691 895 663 867 q 719 964 719 924 m 317 964 q 288 1033 317 1004 q 219 1061 260 1061 q 151 1033 179 1061 q 122 964 122 1004 q 151 895 122 924 q 219 867 179 867 q 288 895 260 867 q 317 964 317 924 "},"å":{"ha":814,"x_min":96,"x_max":715,"o":"m 250 231 q 267 301 250 274 q 309 344 283 329 q 365 365 335 360 q 422 371 394 371 l 451 371 l 451 467 l 392 467 q 285 452 338 467 q 190 408 232 438 q 122 334 149 379 q 96 226 96 289 q 115 117 96 161 q 166 45 133 72 q 241 6 199 18 q 329 -7 283 -7 q 347 -6 342 -7 l 347 104 q 275 140 300 110 q 250 231 250 169 m 671 226 l 671 238 l 671 414 q 668 510 671 461 q 656 606 665 558 q 622 685 646 653 q 567 735 599 717 q 496 763 535 754 q 417 771 457 771 q 331 763 372 771 q 253 743 289 756 q 191 715 218 731 q 150 685 164 700 l 211 592 q 237 610 219 599 q 276 633 254 622 q 325 651 299 643 q 381 658 351 658 q 438 653 414 658 q 477 630 461 649 q 500 572 493 611 q 507 467 507 533 l 507 181 q 462 133 489 153 q 403 107 435 114 l 403 4 q 492 43 451 17 q 546 103 532 69 q 565 63 551 82 q 596 30 578 44 q 633 7 614 15 q 671 -1 653 -1 l 715 89 q 691 113 700 94 q 678 152 682 131 q 672 194 674 174 q 671 226 671 215 m 238 1031 q 249 971 238 999 q 278 921 260 943 q 323 883 297 899 q 378 864 349 868 l 378 947 q 336 979 353 957 q 319 1031 319 1001 q 336 1081 319 1058 q 378 1113 353 1103 l 378 1196 q 323 1176 349 1190 q 278 1139 297 1161 q 249 1089 260 1117 q 238 1031 238 1061 m 433 1196 l 433 1113 q 478 1081 461 1104 q 494 1031 494 1058 q 478 978 494 1001 q 433 947 461 956 l 433 863 q 490 883 464 868 q 534 921 515 899 q 564 971 553 943 q 575 1031 575 999 q 564 1090 575 1061 q 534 1140 553 1118 q 490 1176 515 1161 q 433 1196 464 1192 "},"ç":{"ha":794,"x_min":94,"x_max":699,"o":"m 625 567 l 699 656 q 602 736 656 708 q 474 768 549 764 l 474 638 q 569 613 533 633 q 625 567 604 592 m 474 129 l 474 -6 q 593 26 544 -1 q 683 107 642 54 l 622 196 q 557 153 592 171 q 474 129 522 135 m 94 382 q 117 235 94 304 q 182 115 140 167 q 283 31 224 63 q 418 -6 343 -1 l 418 129 q 354 158 382 135 q 308 215 326 181 q 278 292 289 249 q 268 386 268 336 q 309 553 268 485 q 418 636 350 621 l 418 768 q 285 731 344 763 q 183 647 226 699 q 117 528 140 596 q 94 382 94 460 m 394 -96 l 394 -96 l 486 10 l 382 10 l 303 -125 l 358 -150 q 401 -143 383 -143 q 454 -160 435 -143 q 474 -200 474 -176 q 400 -251 474 -251 l 400 -329 q 513 -294 471 -329 q 554 -197 554 -260 q 546 -158 554 -178 q 523 -123 538 -139 q 488 -97 508 -107 q 442 -86 467 -86 q 394 -96 418 -86 "},"è":{"ha":901,"x_min":97,"x_max":792,"o":"m 472 772 l 472 644 q 538 622 508 640 q 590 575 568 603 q 624 514 613 547 q 636 446 636 481 l 322 446 l 322 326 l 788 326 q 792 392 792 360 q 769 531 792 464 q 706 649 747 597 q 605 733 664 700 q 472 772 546 765 m 467 128 q 369 147 410 128 q 302 200 329 167 q 263 278 275 233 q 250 376 250 324 q 257 449 250 407 q 283 531 264 492 q 334 602 301 571 q 417 643 367 633 l 417 774 q 292 737 350 769 q 191 652 235 704 q 122 531 147 600 q 97 383 97 461 q 124 232 97 303 q 198 108 151 161 q 309 25 244 56 q 449 -6 374 -6 q 601 23 542 -6 q 706 107 661 51 l 646 199 q 601 165 626 179 q 551 143 576 151 q 504 131 526 135 q 467 128 482 128 m 322 1054 l 469 861 l 579 861 l 488 1054 l 322 1054 "},"é":{"ha":901,"x_min":97,"x_max":792,"o":"m 472 772 l 472 644 q 538 622 508 640 q 590 575 568 603 q 624 514 613 547 q 636 446 636 481 l 322 446 l 322 326 l 788 326 q 792 392 792 360 q 769 531 792 464 q 706 649 747 597 q 605 733 664 700 q 472 772 546 765 m 467 128 q 369 147 410 128 q 302 200 329 167 q 263 278 275 233 q 250 376 250 324 q 257 449 250 407 q 283 531 264 492 q 334 602 301 571 q 417 643 367 633 l 417 774 q 292 737 350 769 q 191 652 235 704 q 122 531 147 600 q 97 383 97 461 q 124 232 97 303 q 198 108 151 161 q 309 25 244 56 q 449 -6 374 -6 q 601 23 542 -6 q 706 107 661 51 l 646 199 q 601 165 626 179 q 551 143 576 151 q 504 131 526 135 q 467 128 482 128 m 579 1054 l 579 1054 l 414 1054 l 322 861 l 432 861 l 579 1054 "},"ê":{"ha":901,"x_min":97,"x_max":792,"o":"m 472 772 l 472 644 q 538 622 508 640 q 590 575 568 603 q 624 514 613 547 q 636 446 636 481 l 322 446 l 322 326 l 788 326 q 792 392 792 360 q 769 531 792 464 q 706 649 747 597 q 605 733 664 700 q 472 772 546 765 m 467 128 q 369 147 410 128 q 302 200 329 167 q 263 278 275 233 q 250 376 250 324 q 257 449 250 407 q 283 531 264 492 q 334 602 301 571 q 417 643 367 633 l 417 774 q 292 737 350 769 q 191 652 235 704 q 122 531 147 600 q 97 383 97 461 q 124 232 97 303 q 198 108 151 161 q 309 25 244 56 q 449 -6 374 -6 q 601 23 542 -6 q 706 107 661 51 l 646 199 q 601 165 626 179 q 551 143 576 151 q 504 131 526 135 q 467 128 482 128 m 389 1054 l 242 861 l 392 861 l 422 918 l 422 1054 l 389 1054 m 510 861 l 660 861 l 513 1054 l 478 1054 l 478 917 l 510 861 "},"ë":{"ha":901,"x_min":97,"x_max":792,"o":"m 472 772 l 472 644 q 538 622 508 640 q 590 575 568 603 q 624 514 613 547 q 636 446 636 481 l 322 446 l 322 326 l 788 326 q 792 392 792 360 q 769 531 792 464 q 706 649 747 597 q 605 733 664 700 q 472 772 546 765 m 467 128 q 369 147 410 128 q 302 200 329 167 q 263 278 275 233 q 250 376 250 324 q 257 449 250 407 q 283 531 264 492 q 334 602 301 571 q 417 643 367 633 l 417 774 q 292 737 350 769 q 191 652 235 704 q 122 531 147 600 q 97 383 97 461 q 124 232 97 303 q 198 108 151 161 q 309 25 244 56 q 449 -6 374 -6 q 601 23 542 -6 q 706 107 661 51 l 646 199 q 601 165 626 179 q 551 143 576 151 q 504 131 526 135 q 467 128 482 128 m 763 964 q 734 1033 763 1004 q 665 1061 706 1061 q 597 1033 625 1061 q 568 964 568 1004 q 597 895 568 924 q 665 867 625 867 q 734 895 706 867 q 763 964 763 924 m 360 964 q 331 1033 360 1004 q 263 1061 303 1061 q 194 1033 222 1061 q 165 964 165 1004 q 194 895 165 924 q 263 867 222 867 q 331 895 303 867 q 360 964 360 924 "},"ì":{"ha":396,"x_min":69,"x_max":326,"o":"m 281 0 l 281 765 l 115 765 l 115 0 l 281 0 m 69 1054 l 217 861 l 326 861 l 235 1054 l 69 1054 "},"í":{"ha":396,"x_min":69,"x_max":326,"o":"m 281 0 l 281 765 l 115 765 l 115 0 l 281 0 m 326 1054 l 326 1054 l 161 1054 l 69 861 l 179 861 l 326 1054 "},"î":{"ha":396,"x_min":-10,"x_max":408,"o":"m 281 0 l 281 765 l 115 765 l 115 0 l 281 0 m 138 1054 l -10 861 l 140 861 l 171 918 l 171 1054 l 138 1054 m 258 861 l 408 861 l 261 1054 l 226 1054 l 226 917 l 258 861 "},"ï":{"ha":396,"x_min":-85,"x_max":513,"o":"m 281 0 l 281 765 l 115 765 l 115 0 l 281 0 m 513 964 q 484 1033 513 1004 q 415 1061 456 1061 q 347 1033 375 1061 q 318 964 318 1004 q 347 895 318 924 q 415 867 375 867 q 484 895 456 867 q 513 964 513 924 m 110 964 q 81 1033 110 1004 q 13 1061 53 1061 q -56 1033 -28 1061 q -85 964 -85 1004 q -56 895 -85 924 q 13 867 -28 867 q 81 895 53 867 q 110 964 110 924 "},"ð":{"ha":875,"x_min":94,"x_max":776,"o":"m 94 358 q 124 193 94 260 q 198 83 153 126 q 297 19 243 40 q 399 -6 350 -1 l 399 128 q 283 198 328 139 q 238 344 238 257 q 283 487 238 431 q 399 554 328 543 l 399 678 q 272 647 328 676 q 176 573 215 618 q 115 471 136 528 q 94 358 94 414 m 647 910 l 725 986 l 628 1083 l 538 994 q 503 1013 526 1003 q 449 1033 481 1024 q 381 1049 418 1043 q 307 1056 344 1056 l 307 971 q 346 957 325 965 q 386 939 367 949 q 421 919 406 929 q 443 901 436 910 l 379 836 l 476 739 l 554 817 q 599 713 585 776 q 615 589 614 650 q 610 590 614 590 q 606 592 607 590 q 549 644 590 621 q 454 674 508 667 l 454 556 q 574 488 526 544 q 622 344 622 432 q 610 263 622 300 q 574 197 597 225 q 521 150 551 168 q 454 126 490 132 l 454 -7 q 597 29 536 -3 q 698 115 658 61 q 757 240 738 168 q 776 396 776 311 q 741 714 776 586 q 647 910 706 842 "},"ñ":{"ha":861,"x_min":117,"x_max":750,"o":"m 263 765 l 117 765 l 117 0 l 281 0 l 281 688 l 263 765 m 686 681 q 602 748 644 722 q 499 774 560 774 q 415 760 458 774 q 336 726 372 746 l 336 622 q 398 642 367 636 q 449 649 429 649 q 521 630 494 649 q 562 579 547 611 q 581 505 576 547 q 585 417 585 463 l 585 0 l 750 0 l 750 28 l 750 431 q 749 497 750 463 q 741 564 747 531 q 722 627 735 597 q 686 681 710 657 m 190 908 l 274 872 q 304 920 286 899 q 344 942 322 942 q 388 935 367 942 q 429 919 408 928 q 472 903 450 910 q 518 896 494 896 q 613 927 572 896 q 669 1018 653 958 l 582 1044 q 556 999 571 1010 q 518 988 542 988 q 481 994 501 988 q 440 1010 461 1001 q 394 1026 418 1019 q 344 1033 369 1033 q 293 1023 317 1033 q 250 994 269 1013 q 215 954 231 976 q 190 908 200 932 "},"ò":{"ha":899,"x_min":97,"x_max":801,"o":"m 476 769 l 476 642 q 540 612 511 635 q 588 553 568 589 q 619 474 608 518 q 629 379 629 429 q 587 210 629 281 q 476 125 544 140 l 476 -6 q 609 31 549 0 q 712 113 669 63 q 778 232 754 164 q 801 379 801 300 q 778 528 801 458 q 714 649 756 597 q 612 733 672 701 q 476 769 551 765 m 97 382 q 120 235 97 304 q 185 115 143 167 q 286 32 226 64 q 421 -6 346 0 l 421 125 q 357 153 385 131 q 310 212 329 176 q 281 292 292 247 q 271 386 271 336 q 312 556 271 486 q 421 642 353 626 l 421 768 q 289 730 349 761 q 187 648 229 699 q 121 529 144 597 q 97 382 97 461 m 321 1054 l 468 861 l 578 861 l 486 1054 l 321 1054 "},"ó":{"ha":899,"x_min":97,"x_max":801,"o":"m 476 769 l 476 642 q 540 612 511 635 q 588 553 568 589 q 619 474 608 518 q 629 379 629 429 q 587 210 629 281 q 476 125 544 140 l 476 -6 q 609 31 549 0 q 712 113 669 63 q 778 232 754 164 q 801 379 801 300 q 778 528 801 458 q 714 649 756 597 q 612 733 672 701 q 476 769 551 765 m 97 382 q 120 235 97 304 q 185 115 143 167 q 286 32 226 64 q 421 -6 346 0 l 421 125 q 357 153 385 131 q 310 212 329 176 q 281 292 292 247 q 271 386 271 336 q 312 556 271 486 q 421 642 353 626 l 421 768 q 289 730 349 761 q 187 648 229 699 q 121 529 144 597 q 97 382 97 461 m 578 1054 l 578 1054 l 413 1054 l 321 861 l 431 861 l 578 1054 "},"ô":{"ha":899,"x_min":97,"x_max":801,"o":"m 476 769 l 476 642 q 540 612 511 635 q 588 553 568 589 q 619 474 608 518 q 629 379 629 429 q 587 210 629 281 q 476 125 544 140 l 476 -6 q 609 31 549 0 q 712 113 669 63 q 778 232 754 164 q 801 379 801 300 q 778 528 801 458 q 714 649 756 597 q 612 733 672 701 q 476 769 551 765 m 97 382 q 120 235 97 304 q 185 115 143 167 q 286 32 226 64 q 421 -6 346 0 l 421 125 q 357 153 385 131 q 310 212 329 176 q 281 292 292 247 q 271 386 271 336 q 312 556 271 486 q 421 642 353 626 l 421 768 q 289 730 349 761 q 187 648 229 699 q 121 529 144 597 q 97 382 97 461 m 388 1054 l 240 861 l 390 861 l 421 918 l 421 1054 l 388 1054 m 508 861 l 658 861 l 511 1054 l 476 1054 l 476 917 l 508 861 "},"õ":{"ha":899,"x_min":97,"x_max":801,"o":"m 476 769 l 476 642 q 540 612 511 635 q 588 553 568 589 q 619 474 608 518 q 629 379 629 429 q 587 210 629 281 q 476 125 544 140 l 476 -6 q 609 31 549 0 q 712 113 669 63 q 778 232 754 164 q 801 379 801 300 q 778 528 801 458 q 714 649 756 597 q 612 733 672 701 q 476 769 551 765 m 97 382 q 120 235 97 304 q 185 115 143 167 q 286 32 226 64 q 421 -6 346 0 l 421 125 q 357 153 385 131 q 310 212 329 176 q 281 292 292 247 q 271 386 271 336 q 312 556 271 486 q 421 642 353 626 l 421 768 q 289 730 349 761 q 187 648 229 699 q 121 529 144 597 q 97 382 97 461 m 210 908 l 293 872 q 324 920 306 899 q 364 942 342 942 q 407 935 386 942 q 449 919 428 928 q 492 903 469 910 q 538 896 514 896 q 632 927 592 896 q 689 1018 672 958 l 601 1044 q 576 999 590 1010 q 538 988 561 988 q 501 994 521 988 q 459 1010 481 1001 q 413 1026 438 1019 q 364 1033 389 1033 q 313 1023 336 1033 q 269 994 289 1013 q 235 954 250 976 q 210 908 219 932 "},"ö":{"ha":899,"x_min":97,"x_max":801,"o":"m 476 769 l 476 642 q 540 612 511 635 q 588 553 568 589 q 619 474 608 518 q 629 379 629 429 q 587 210 629 281 q 476 125 544 140 l 476 -6 q 609 31 549 0 q 712 113 669 63 q 778 232 754 164 q 801 379 801 300 q 778 528 801 458 q 714 649 756 597 q 612 733 672 701 q 476 769 551 765 m 97 382 q 120 235 97 304 q 185 115 143 167 q 286 32 226 64 q 421 -6 346 0 l 421 125 q 357 153 385 131 q 310 212 329 176 q 281 292 292 247 q 271 386 271 336 q 312 556 271 486 q 421 642 353 626 l 421 768 q 289 730 349 761 q 187 648 229 699 q 121 529 144 597 q 97 382 97 461 m 761 964 q 733 1033 761 1004 q 664 1061 704 1061 q 595 1033 624 1061 q 567 964 567 1004 q 595 895 567 924 q 664 867 624 867 q 733 895 704 867 q 761 964 761 924 m 358 964 q 330 1033 358 1004 q 261 1061 301 1061 q 192 1033 221 1061 q 164 964 164 1004 q 192 895 164 924 q 261 867 221 867 q 330 895 301 867 q 358 964 358 924 "},"÷":{"ha":749,"x_min":60,"x_max":693,"o":"m 60 465 l 693 465 l 693 328 l 60 328 l 60 465 m 467 675 q 438 744 467 715 q 369 772 410 772 q 301 744 329 772 q 272 675 272 715 q 301 606 272 635 q 369 578 329 578 q 438 606 410 578 q 467 675 467 635 m 467 90 q 438 159 467 131 q 369 188 410 188 q 301 159 329 188 q 272 90 272 131 q 301 22 272 50 q 369 -7 329 -7 q 438 22 410 -7 q 467 90 467 50 "},"ù":{"ha":860,"x_min":111,"x_max":744,"o":"m 276 349 l 276 765 l 111 765 l 111 335 q 112 269 111 303 q 119 201 113 235 q 138 138 125 168 q 175 85 151 108 q 216 47 196 64 q 258 18 236 31 q 307 -1 281 6 q 365 -7 333 -7 q 447 7 406 -7 q 524 40 489 21 l 524 142 q 461 124 493 129 q 411 118 429 118 q 340 137 367 118 q 299 187 313 156 q 281 260 285 218 q 276 349 276 301 m 744 765 l 579 765 l 579 79 l 597 0 l 744 0 l 744 765 m 301 1054 l 449 861 l 558 861 l 467 1054 l 301 1054 "},"ú":{"ha":860,"x_min":111,"x_max":744,"o":"m 276 349 l 276 765 l 111 765 l 111 335 q 112 269 111 303 q 119 201 113 235 q 138 138 125 168 q 175 85 151 108 q 216 47 196 64 q 258 18 236 31 q 307 -1 281 6 q 365 -7 333 -7 q 447 7 406 -7 q 524 40 489 21 l 524 142 q 461 124 493 129 q 411 118 429 118 q 340 137 367 118 q 299 187 313 156 q 281 260 285 218 q 276 349 276 301 m 744 765 l 579 765 l 579 79 l 597 0 l 744 0 l 744 765 m 558 1054 l 558 1054 l 393 1054 l 301 861 l 411 861 l 558 1054 "},"û":{"ha":860,"x_min":111,"x_max":744,"o":"m 276 349 l 276 765 l 111 765 l 111 335 q 112 269 111 303 q 119 201 113 235 q 138 138 125 168 q 175 85 151 108 q 216 47 196 64 q 258 18 236 31 q 307 -1 281 6 q 365 -7 333 -7 q 447 7 406 -7 q 524 40 489 21 l 524 142 q 461 124 493 129 q 411 118 429 118 q 340 137 367 118 q 299 187 313 156 q 281 260 285 218 q 276 349 276 301 m 744 765 l 579 765 l 579 79 l 597 0 l 744 0 l 744 765 m 368 1054 l 221 861 l 371 861 l 401 918 l 401 1054 l 368 1054 m 489 861 l 639 861 l 492 1054 l 457 1054 l 457 917 l 489 861 "},"ü":{"ha":860,"x_min":111,"x_max":744,"o":"m 276 349 l 276 765 l 111 765 l 111 335 q 112 269 111 303 q 119 201 113 235 q 138 138 125 168 q 175 85 151 108 q 216 47 196 64 q 258 18 236 31 q 307 -1 281 6 q 365 -7 333 -7 q 447 7 406 -7 q 524 40 489 21 l 524 142 q 461 124 493 129 q 411 118 429 118 q 340 137 367 118 q 299 187 313 156 q 281 260 285 218 q 276 349 276 301 m 744 765 l 579 765 l 579 79 l 597 0 l 744 0 l 744 765 m 742 964 q 713 1033 742 1004 q 644 1061 685 1061 q 576 1033 604 1061 q 547 964 547 1004 q 576 895 547 924 q 644 867 604 867 q 713 895 685 867 q 742 964 742 924 m 339 964 q 310 1033 339 1004 q 242 1061 282 1061 q 173 1033 201 1061 q 144 964 144 1004 q 173 895 144 924 q 242 867 201 867 q 310 895 282 867 q 339 964 339 924 "},"ý":{"ha":913,"x_min":103,"x_max":854,"o":"m 854 765 l 689 765 l 417 0 l 365 -122 q 338 -178 350 -158 q 312 -208 325 -199 q 282 -220 299 -218 q 243 -222 265 -222 q 210 -215 232 -222 q 176 -208 188 -208 q 169 -232 174 -215 q 160 -268 164 -249 q 149 -315 154 -290 q 165 -321 153 -317 q 193 -330 178 -325 q 225 -338 208 -335 q 254 -342 242 -342 q 324 -338 293 -342 q 380 -319 354 -335 q 430 -272 406 -303 q 482 -188 454 -242 q 543 -54 510 -135 q 620 142 576 26 q 722 412 664 258 q 854 765 779 565 m 388 72 l 443 204 l 463 251 l 267 765 l 103 765 l 388 72 m 585 1054 l 585 1054 l 419 1054 l 328 861 l 438 861 l 585 1054 "},"þ":{"ha":849,"x_min":117,"x_max":801,"o":"m 117 1054 l 117 -301 l 282 -301 l 282 1054 l 117 1054 m 785 533 q 735 644 767 599 q 663 719 703 690 q 576 760 622 747 q 486 772 531 772 q 406 763 444 772 q 338 735 368 753 l 338 592 q 390 631 361 617 q 454 646 419 646 q 528 624 496 646 q 583 566 560 603 q 617 481 606 529 q 629 381 629 433 q 616 278 629 326 q 578 196 603 231 q 521 141 554 161 q 447 121 488 121 q 338 174 382 121 l 338 32 q 412 4 369 15 q 501 -7 454 -7 q 634 26 578 -7 q 728 115 690 60 q 783 243 765 171 q 801 393 801 315 q 785 533 801 471 "},"ÿ":{"ha":913,"x_min":103,"x_max":854,"o":"m 854 765 l 689 765 l 417 0 l 365 -122 q 338 -178 350 -158 q 312 -208 325 -199 q 282 -220 299 -218 q 243 -222 265 -222 q 210 -215 232 -222 q 176 -208 188 -208 q 169 -232 174 -215 q 160 -268 164 -249 q 149 -315 154 -290 q 165 -321 153 -317 q 193 -330 178 -325 q 225 -338 208 -335 q 254 -342 242 -342 q 324 -338 293 -342 q 380 -319 354 -335 q 430 -272 406 -303 q 482 -188 454 -242 q 543 -54 510 -135 q 620 142 576 26 q 722 412 664 258 q 854 765 779 565 m 388 72 l 443 204 l 463 251 l 267 765 l 103 765 l 388 72 m 768 964 q 740 1033 768 1004 q 671 1061 711 1061 q 602 1033 631 1061 q 574 964 574 1004 q 602 895 574 924 q 671 867 631 867 q 740 895 711 867 q 768 964 768 924 m 365 964 q 337 1033 365 1004 q 268 1061 308 1061 q 199 1033 228 1061 q 171 964 171 1004 q 199 895 171 924 q 268 867 228 867 q 337 895 308 867 q 365 964 365 924 "},"ı":{"ha":396,"x_min":115,"x_max":281,"o":"m 281 0 l 281 765 l 115 765 l 115 0 l 281 0 "},"Ł":{"ha":901,"x_min":56,"x_max":849,"o":"m 517 697 l 56 374 l 153 276 l 614 600 l 517 697 m 389 1000 l 224 1000 l 224 0 l 849 0 l 849 124 l 389 124 l 389 1000 "},"ł":{"ha":672,"x_min":60,"x_max":604,"o":"m 507 767 l 60 457 l 157 360 l 604 669 l 507 767 m 336 233 l 336 1054 l 171 1054 l 171 258 l 171 242 q 174 184 171 221 q 191 109 178 147 q 231 40 204 71 q 303 -1 257 8 q 338 -6 318 -4 q 379 -7 358 -7 q 420 -6 400 -7 q 456 -4 440 -6 q 492 0 474 -3 l 492 100 q 432 104 460 100 q 383 122 404 108 q 349 161 361 135 q 336 233 336 188 "},"Š":{"ha":736,"x_min":110,"x_max":690,"o":"m 585 844 q 593 858 586 846 q 609 889 600 871 q 629 928 618 907 q 649 967 640 949 q 549 1003 610 992 q 428 1015 488 1014 l 428 879 q 497 878 469 882 q 541 867 524 874 q 568 854 558 861 q 585 844 578 847 m 117 736 q 140 629 117 674 q 201 551 164 585 q 283 492 238 517 q 372 444 328 467 l 372 600 q 299 656 328 624 q 271 742 271 689 q 300 817 271 781 q 372 869 329 854 l 372 1013 q 273 984 319 1006 q 192 927 226 963 q 137 844 157 892 q 117 736 117 796 m 139 183 l 110 67 q 165 32 133 46 q 232 10 197 18 q 302 -2 267 1 q 369 -6 338 -6 l 372 -6 l 372 124 l 368 124 q 309 129 340 124 q 247 143 278 135 q 187 162 215 151 q 139 183 158 172 m 428 572 l 428 414 q 508 355 476 386 q 539 276 539 324 q 428 129 539 157 l 428 -1 q 539 33 490 7 q 621 96 588 58 q 672 179 654 133 q 690 274 690 225 q 666 392 690 344 q 603 472 642 439 q 519 528 565 506 q 428 572 472 551 m 158 1289 l 306 1096 l 339 1096 l 339 1232 l 308 1289 l 158 1289 m 426 1289 l 394 1233 l 394 1096 l 429 1096 l 576 1289 l 426 1289 "},"š":{"ha":728,"x_min":99,"x_max":631,"o":"m 99 547 q 135 435 99 478 q 243 356 171 393 q 289 335 265 344 q 336 319 313 326 l 336 465 q 283 500 304 481 q 261 551 261 519 q 281 613 261 592 q 336 642 301 635 l 336 778 q 247 756 290 774 q 171 710 204 739 q 118 640 138 681 q 99 547 99 599 m 551 604 l 606 717 q 504 762 556 747 q 392 779 453 776 l 392 644 q 474 633 433 642 q 551 604 515 624 m 171 171 l 101 61 q 162 26 133 39 q 218 5 190 13 q 274 -5 246 -3 q 336 -7 303 -7 l 336 119 l 329 119 q 235 135 272 119 q 171 171 199 151 m 392 443 l 392 300 q 461 265 433 285 q 489 210 489 244 q 463 154 489 175 q 392 125 438 133 l 392 -4 q 485 17 442 1 q 561 62 529 33 q 612 130 593 90 q 631 222 631 169 q 608 313 631 276 q 551 373 586 349 q 474 413 517 397 q 392 443 432 429 m 154 1054 l 301 861 l 335 861 l 335 997 l 304 1054 l 154 1054 m 422 1054 l 390 999 l 390 861 l 425 861 l 572 1054 l 422 1054 "},"Ÿ":{"ha":889,"x_min":74,"x_max":818,"o":"m 632 1000 l 356 333 l 356 0 l 521 0 l 521 407 l 818 1000 l 632 1000 m 260 1000 l 74 1000 l 336 433 l 410 610 l 260 1000 m 757 1199 q 728 1267 757 1239 q 660 1296 700 1296 q 591 1267 619 1296 q 563 1199 563 1239 q 591 1130 563 1158 q 660 1101 619 1101 q 728 1130 700 1101 q 757 1199 757 1158 m 354 1199 q 326 1267 354 1239 q 257 1296 297 1296 q 188 1267 217 1296 q 160 1199 160 1239 q 188 1130 160 1158 q 257 1101 217 1101 q 326 1130 297 1101 q 354 1199 354 1158 "},"Ž":{"ha":875,"x_min":106,"x_max":771,"o":"m 771 1000 l 106 1000 l 106 868 l 610 868 l 582 846 l 106 132 l 106 0 l 771 0 l 771 132 l 267 132 l 294 153 l 771 868 l 771 1000 m 228 1289 l 375 1096 l 408 1096 l 408 1232 l 378 1289 l 228 1289 m 496 1289 l 464 1233 l 464 1096 l 499 1096 l 646 1289 l 496 1289 "},"ž":{"ha":815,"x_min":117,"x_max":699,"o":"m 117 765 l 117 765 l 117 633 l 538 633 l 510 611 l 117 132 l 117 0 l 699 0 l 699 132 l 278 132 l 306 153 l 699 633 l 699 765 l 117 765 m 199 1054 l 346 861 l 379 861 l 379 997 l 349 1054 l 199 1054 m 467 1054 l 435 999 l 435 861 l 469 861 l 617 1054 l 467 1054 "},"ˆ":{"ha":482,"x_min":32,"x_max":450,"o":"m 179 1054 l 32 861 l 182 861 l 213 918 l 213 1054 l 179 1054 m 300 861 l 450 861 l 303 1054 l 268 1054 l 268 917 l 300 861 "},"ˇ":{"ha":479,"x_min":31,"x_max":449,"o":"m 31 1054 l 178 861 l 211 861 l 211 997 l 181 1054 l 31 1054 m 299 1054 l 267 999 l 267 861 l 301 861 l 449 1054 l 299 1054 "},"˘":{"ha":524,"x_min":93,"x_max":431,"o":"m 263 943 q 201 969 226 943 q 175 1031 175 994 l 93 1031 q 106 965 93 996 q 142 910 119 933 q 197 874 165 888 q 263 861 228 861 q 328 874 297 861 q 381 910 358 888 q 417 965 404 933 q 431 1031 431 996 l 350 1031 q 324 969 350 994 q 263 943 299 943 "},"˙":{"ha":388,"x_min":97,"x_max":292,"o":"m 292 964 q 263 1033 292 1004 q 194 1061 235 1061 q 126 1033 154 1061 q 97 964 97 1004 q 126 895 97 924 q 194 867 154 867 q 263 895 235 867 q 292 964 292 924 "},"˚":{"ha":529,"x_min":96,"x_max":433,"o":"m 96 1031 q 107 971 96 999 q 137 921 118 943 q 181 883 156 899 q 236 864 207 868 l 236 947 q 194 979 211 957 q 178 1031 178 1001 q 194 1081 178 1058 q 236 1113 211 1103 l 236 1196 q 181 1176 207 1190 q 137 1139 156 1161 q 107 1089 118 1117 q 96 1031 96 1061 m 292 1196 l 292 1113 q 336 1081 319 1104 q 353 1031 353 1058 q 336 978 353 1001 q 292 947 319 956 l 292 863 q 348 883 322 868 q 392 921 374 899 q 422 971 411 943 q 433 1031 433 999 q 422 1090 433 1061 q 392 1140 411 1118 q 348 1176 374 1161 q 292 1196 322 1192 "},"˛":{"ha":393,"x_min":75,"x_max":308,"o":"m 308 22 q 291 36 306 25 q 261 53 276 47 q 168 -6 208 26 q 103 -70 132 -33 q 75 -149 75 -107 q 87 -208 75 -181 q 122 -258 99 -236 q 178 -292 144 -279 q 254 -304 211 -304 l 254 -253 q 222 -247 239 -253 q 190 -230 204 -242 q 165 -199 175 -218 q 156 -150 156 -179 q 177 -89 156 -118 q 226 -37 199 -60 q 278 2 253 -14 q 308 22 303 18 "},"˜":{"ha":551,"x_min":40,"x_max":519,"o":"m 40 908 l 124 872 q 154 920 136 899 q 194 942 172 942 q 238 935 217 942 q 279 919 258 928 q 322 903 300 910 q 368 896 344 896 q 463 927 422 896 q 519 1018 503 958 l 432 1044 q 406 999 421 1010 q 368 988 392 988 q 331 994 351 988 q 290 1010 311 1001 q 244 1026 268 1019 q 194 1033 219 1033 q 143 1023 167 1033 q 100 994 119 1013 q 65 954 81 976 q 40 908 50 932 "},"˝":{"ha":608,"x_min":32,"x_max":593,"o":"m 289 1054 l 124 1054 l 32 861 l 142 861 l 289 1054 m 593 1054 l 428 1054 l 336 861 l 446 861 l 593 1054 "},"–":{"ha":867,"x_min":117,"x_max":750,"o":"m 750 465 l 117 465 l 117 328 l 750 328 l 750 465 "},"—":{"ha":1244,"x_min":117,"x_max":1128,"o":"m 1128 465 l 117 465 l 117 328 l 1128 328 l 1128 465 "},"‘":{"ha":375,"x_min":85,"x_max":279,"o":"m 182 656 q 251 684 222 656 q 279 753 279 713 q 251 822 279 793 q 182 850 222 850 q 201 901 188 875 q 231 952 213 925 q 276 1007 249 979 l 213 1007 q 136 923 163 965 q 99 845 110 881 q 86 785 88 810 q 85 753 85 760 q 113 684 85 713 q 182 656 142 656 "},"’":{"ha":374,"x_min":96,"x_max":290,"o":"m 193 1007 q 124 978 153 1007 q 96 910 96 950 q 124 841 96 869 q 193 813 153 813 q 172 761 185 788 q 144 710 161 738 q 99 656 126 682 l 163 656 q 239 740 213 697 q 276 817 265 782 q 289 878 288 853 q 290 910 290 903 q 262 978 290 950 q 193 1007 233 1007 "},"“":{"ha":671,"x_min":106,"x_max":564,"o":"m 467 656 q 535 684 507 656 q 564 753 564 713 q 535 822 564 793 q 467 850 507 850 q 486 901 472 875 q 515 952 497 925 q 561 1007 533 979 l 497 1007 q 421 923 447 965 q 383 845 394 881 q 371 785 372 810 q 369 753 369 760 q 398 684 369 713 q 467 656 426 656 m 203 656 q 272 684 243 656 q 300 753 300 713 q 272 822 300 793 q 203 850 243 850 q 222 901 208 875 q 251 952 233 925 q 297 1007 269 979 l 233 1007 q 157 923 183 965 q 119 845 131 881 q 107 785 108 810 q 106 753 106 760 q 134 684 106 713 q 203 656 163 656 "},"”":{"ha":669,"x_min":107,"x_max":565,"o":"m 204 1007 q 135 978 164 1007 q 107 910 107 950 q 135 841 107 869 q 204 813 164 813 q 183 761 196 788 q 155 710 172 738 q 110 656 138 682 l 174 656 q 250 740 224 697 q 288 817 276 782 q 300 878 299 853 q 301 910 301 903 q 273 978 301 950 q 204 1007 244 1007 m 468 1007 q 399 978 428 1007 q 371 910 371 950 q 399 841 371 869 q 468 813 428 813 q 447 761 460 788 q 419 710 436 738 q 374 656 401 682 l 438 656 q 514 740 488 697 q 551 817 540 782 q 564 878 563 853 q 565 910 565 903 q 537 978 565 950 q 468 1007 508 1007 "},"‹":{"ha":621,"x_min":60,"x_max":524,"o":"m 244 383 l 524 724 l 338 724 l 60 383 l 333 42 l 522 42 l 244 383 "},"›":{"ha":621,"x_min":97,"x_max":561,"o":"m 97 724 l 376 383 l 99 42 l 288 42 l 561 383 l 283 724 l 97 724 "},"€":{"ha":921,"x_min":74,"x_max":818,"o":"m 597 1015 q 460 994 525 1015 q 344 929 396 972 q 254 822 292 886 q 197 672 217 757 l 115 672 l 74 561 l 182 561 q 181 547 181 554 q 181 533 181 540 l 347 533 q 347 547 347 540 q 349 561 347 554 l 671 561 l 713 672 l 365 672 q 460 834 396 786 q 601 882 524 882 q 688 864 646 882 q 763 807 729 846 l 818 953 q 597 1015 722 1015 m 593 126 q 456 176 518 126 q 365 339 394 226 l 588 339 l 629 450 l 349 450 q 347 464 347 457 q 346 478 347 471 l 181 478 q 181 464 181 471 q 182 450 181 457 l 115 450 l 74 339 l 197 339 q 253 188 215 253 q 342 80 290 124 q 459 15 394 36 q 597 -7 524 -7 q 763 25 686 -7 l 763 201 q 685 144 728 161 q 593 126 642 126 "}}}
